<?xml version="1.0" encoding="UTF-8" standalone="no"?>

<svg
   width="25mm"
   height="25mm"
   viewBox="0 0 25 25"
   version="1.1"
   id="svg5"
   xmlns="http://www.w3.org/2000/svg"
   xmlns:svg="http://www.w3.org/2000/svg">
  <style>
    path {
      fill: #000;
      fill-opacity: 1;
      stroke: none;
    }
    @media (prefers-color-scheme: dark) {
      path {
        fill: #fff;
      }
    }
  </style>
  <defs
     id="defs2" />
  <g
     id="layer1">
    <g
       aria-label="M"
       id="text186"
       style="font-size:25.4px;line-height:1.25;stroke-width:0.264583"
       transform="translate(0.2445943,3.7885814)">
      <path
         d="M 1.0668,3.3019999 Q 1.6764,1.7779999 3.1496,0.88899989 4.6481999,-9.5367433e-8 6.0451999,-9.5367433e-8 q 1.397,0 2.413,0.609599995367433 0.1778,-0.0254 0.5334,-0.0254 2.5908001,0 3.8100001,1.5494 0.3302,-0.2286 0.5842,-0.2794 0.254,-0.0508 0.2794,0.0508 -0.0508,0.1778 -0.254,0.2286 -0.2032,0.0508 -0.4572,0.2286 0.889,1.3207999 0.889,3.5305999 0,2.1844 -1.0922,5.4102002 0.2794,0.0508 0.7874,0.2032 l 0.3302,-0.5842 q 2.4384,-4.0132002 3.7084,-5.7150002 3.2512,-4.26719991 5.6134,-4.26719991 0.6096,0 0.9652,0.48260001 0.381,0.4572 0.381,1.0414 0,0.4064 -0.1016,0.4318 -0.0762,0.0254 -0.1016,-0.1016 l -0.0254,-0.0762 q 0,-1.1176 -1.1684,-1.1176 -0.4318,0 -1.2192,0.3556 -0.762,0.3302 -1.9304,1.4478 -1.143,1.0921999 -2.2098,2.5399999 -1.778,2.3876 -2.794,3.9878 -0.9906,1.5748002 -1.0922,1.7272002 2.1844,0.889 2.1844,2.5146 0,0.4826 -0.1778,1.016 -0.0254,0.0508 -0.1016,0.0508 -0.0508,0.0254 -0.1016,-0.0254 -0.0254,-0.0508 0.0762,-0.3302 0.1016,-0.2794 0.1016,-0.7874 0,-0.508 -0.3048,-0.9906 -0.5334,-0.8382 -1.778,-1.2954 -2.0574,3.0734 -2.6162,3.0734 -0.1524,0 -0.1016,-0.1524 0.635,-1.6256 1.0668,-3.3274 -0.254,-0.0508 -0.762,-0.1016 -0.6096,2.1336 -1.8542001,3.556 -1.2446,1.4478 -2.4638,1.9812 -1.1938,0.5588 -2.1082,0.5588 -1.8287999,0 -2.2859999,-1.1938 -0.1778,0.0254 -0.5588,0.0254 -0.381,0 -0.8128,-0.0762 Q 0.8636,16.1036 0.4318,15.7988 0,15.5194 0,15.0876 q 0,-0.4318 0.3048,-0.508 0.1524,-0.0254 0.1524,0.0508 0.0254,0.0762 -0.0254,0.127 -0.22859999,0.3048 0.0762,0.6096 0.5842,0.5334 1.6256,0.5334 0.2286,0 0.4318,-0.0254 Q 2.54,15.7226 2.54,15.5702 q 0,-0.9652 0.9906,-2.1082 1.2699999,-1.4732 4.0385999,-2.1336 0.4064,-0.762 1.1176,-2.4892002 1.27,-2.9972 2.3368001,-4.699 -0.6858,-2.1335999 -2.2860001,-3.14959991 -0.1778,-0.0254 -0.5334,-0.0254 -1.7526,0 -3.5814,1.37160001 Q 2.159,4.1655998 1.5494,6.9087998 q 0.762,1.4986 2.2606,1.4986 0.0508,0 0.0762,0 1.0159999,0 1.9303999,-0.635 0.9144,-0.635 1.016,-1.4986 0,-0.0508 0.0508,-0.0762 0.0508,-0.0254 0.1016,0.0254 0.0508,0.0254 0.0508,0.0762 -0.1016,0.9398 -1.0922,1.6256 -0.9906,0.6858 -2.0573999,0.6858 -0.0254,0 -0.0762,0 -1.4224,0 -2.3114,-1.1684 -0.0254,0.2286 -0.0254,0.4572 0,1.0414 0.5334,1.8542 Q 2.54,10.5664 3.81,10.5664 q 1.2953999,0 2.1589999,-0.6096002 0.889,-0.635 1.1684,-1.016 0.2794,-0.4064 0.3048,-0.2794 0.0254,0.1016 -0.0508,0.254 -0.2794,0.6858 -1.4732,1.4732002 -1.1938,0.762 -2.3113999,0.762 -1.0922,0 -1.778,-0.4318 Q 0.635,9.9059998 0.635,8.0517998 q 0,-0.889 0.2794,-1.778 -0.1778,-0.6096 -0.1778,-1.3208 0,-0.7366 0.3302,-1.6509999 z M 3.0734,16.1544 q 0.4064,1.0668 1.9049999,1.0668 0.8128,0 1.778,-0.4318 1.6002,-0.7366 2.6924,-2.2098 Q 10.541,13.1318 11.049,11.303 10.7442,11.2776 10.16,11.2776 q -0.5588001,0 -1.4478001,0.1524 -2.2352,4.2418 -5.6387999,4.7244 z M 21.7678,3.4543999 q 0.127,0 0.127,0.1524 0,0.1523999 -0.1524,0.1523999 -0.0254,0 -0.0508,0 -0.7366,0 -1.4224,1.27 -1.1176,2.0828 -1.7272,6.3500002 -0.1778,1.3208 -0.1778,1.7272 0,2.2352 1.143,2.2352 0.3302,0 0.8382,-0.3302 0.508,-0.3302 1.0668,-1.2192 0.127,-0.2032 0.2286,-0.127 0.1016,0.0508 0,0.254 -0.5842,1.143 -1.6256,1.6256 -0.4826,0.254 -0.9652,0.254 -0.4572,0 -0.9144,-0.3048 -0.8382,-0.5334 -0.8636,-2.1082 0,-2.2352 1.0668,-5.7912002 0.508,-1.7526 1.397,-2.9464 0.889,-1.1937999 1.905,-1.1937999 0.0508,0 0.127,0 z m -13.7160001,-2.8194 q -1.0414,-0.4318 -2.2098,-0.4318 -1.1684,0 -2.4637999,0.78739999 Q 2.1082,1.7525999 1.6256,2.8955999 1.143,4.0131998 1.143,5.0291998 q 0,0.2794 0.0254,0.5588 l 0.2286,-0.4572 q 1.016,-1.7525999 2.8447999,-2.9971999 1.8288,-1.24460001 3.81,-1.4986 z M 11.1252,11.0744 q 0.381,-1.5240002 0.381,-3.1496002 0,-1.6256 -0.254,-2.8448 -0.381,0.8636 -1.0668,2.7432 -0.6858001,1.8542 -0.9906001,2.5400002 l -0.3302,0.762 q 0.6096,-0.0762 1.1938001,-0.0762 0.5842,0 1.0668,0.0254 z m -8.1788,4.5212 q 0,0.127 0.0254,0.2286 2.4637999,-0.4826 4.4195999,-4.1402 -2.3876,0.5842 -3.4289999,1.8034 -1.016,1.1938 -1.016,2.1082 z M 11.557,4.4449998 q 0.381,1.2954 0.381,2.921 0,1.6256 -0.508,3.7338002 l 0.762,0.0762 q 0.6096,-2.5400002 0.6096,-4.5212002 0,-1.9812 -0.635,-3.3527999 -0.3048,0.5079999 -0.6096,1.1429999 z m -0.254,-0.7366 q 0.1778,-0.2793999 0.635,-0.8381999 -0.889,-1.4986 -2.7178001,-1.8288 Q 10.6426,2.0065999 11.303,3.7083998 Z M 13.4366,11.684 12.7,11.4808 q -0.5588,1.6764 -1.27,3.0734 0.5334,-0.254 2.0066,-2.8702 z"
         id="path424" />
    </g>
  </g>
</svg>
