<?xml version="1.0" encoding="UTF-8" standalone="no"?>
<!-- Created with Inkscape (http://www.inkscape.org/) -->

<svg
   width="118.631mm"
   height="45.228001mm"
   viewBox="0 0 118.631 45.228"
   version="1.1"
   id="svg5"
   sodipodi:docname="main_text.svg"
   inkscape:version="1.2.2 (b0a8486541, 2022-12-01)"
   xmlns:inkscape="http://www.inkscape.org/namespaces/inkscape"
   xmlns:sodipodi="http://sodipodi.sourceforge.net/DTD/sodipodi-0.dtd"
   xmlns="http://www.w3.org/2000/svg"
   xmlns:svg="http://www.w3.org/2000/svg">
  <sodipodi:namedview
     id="namedview7"
     pagecolor="#ffffff"
     bordercolor="#666666"
     borderopacity="1.0"
     inkscape:showpageshadow="2"
     inkscape:pageopacity="0.0"
     inkscape:pagecheckerboard="0"
     inkscape:deskcolor="#d1d1d1"
     inkscape:document-units="mm"
     showgrid="false"
     inkscape:zoom="1.4928403"
     inkscape:cx="509.7665"
     inkscape:cy="229.76335"
     inkscape:window-width="3440"
     inkscape:window-height="1375"
     inkscape:window-x="1920"
     inkscape:window-y="0"
     inkscape:window-maximized="1"
     inkscape:current-layer="layer1" />
  <defs
     id="defs2" />
  <g
     inkscape:label="Layer 1"
     inkscape:groupmode="layer"
     id="layer1">
    <g
       aria-label="Meg Austin
Aerial, Contortion, and Handbalacing
Performance Arts"
       id="text6003"
       style="font-size:12.7px;line-height:1.25;stroke-width:0.264583">
      <path
         d="M 0.73659999,1.6509999 Q 1.0414,0.88899994 1.778,0.44449995 2.5273,-4.7683717e-8 3.2257999,-4.7683717e-8 q 0.6985,0 1.2065,0.304799997683717 0.0889,-0.0127 0.2667,-0.0127 1.2954,0 1.905,0.77469995 0.1651,-0.11429996 0.2921,-0.13969996 0.127,-0.0254 0.1397,0.0254 -0.0254,0.0889 -0.127,0.11429996 -0.1016,0.0254 -0.2286,0.1143 0.4445,0.6604 0.4445,1.7653 0,1.0922 -0.5461,2.7051 0.1397,0.0254 0.3937,0.1016 l 0.1651,-0.2921 q 1.2192,-2.0066 1.8542,-2.8575 Q 10.6172,0.46989995 11.7983,0.46989995 q 0.3048,0 0.4826,0.24129999 0.1905,0.2286 0.1905,0.52069996 0,0.2032 -0.0508,0.2159 -0.0381,0.0127 -0.0508,-0.0508 l -0.0127,-0.0381 q 0,-0.55879996 -0.5842,-0.55879996 -0.2159,0 -0.6096,0.1778 -0.381,0.16509996 -0.9652,0.72389996 -0.5715001,0.5461 -1.1049001,1.27 -0.889,1.1938 -1.397,1.9939 -0.4953,0.7874 -0.5461,0.8636 1.0922,0.4445 1.0922,1.2572999 0,0.2413 -0.0889,0.508 -0.0127,0.0254 -0.0508,0.0254 -0.0254,0.0127 -0.0508,-0.0127 -0.0127,-0.0254 0.0381,-0.1651 0.0508,-0.1397 0.0508,-0.3937 0,-0.2539999 -0.1524,-0.4952999 -0.2667,-0.4191 -0.889,-0.6477 -1.0287,1.5366999 -1.3081,1.5366999 -0.0762,0 -0.0508,-0.0762 0.3175,-0.8127999 0.5334,-1.6636999 -0.127,-0.0254 -0.381,-0.0508 -0.3048,1.0668 -0.9271,1.7779999 -0.6223,0.7239 -1.2319,0.9906 -0.5968999,0.2794 -1.0540999,0.2794 -0.9144,0 -1.143,-0.5969 -0.0889,0.0127 -0.2794,0.0127 -0.1905,0 -0.40640001,-0.0381 -0.2159,-0.0254 -0.4318,-0.1778 -0.2159,-0.1397 -0.2159,-0.3556 0,-0.2159 0.1524,-0.254 0.0762,-0.0127 0.0762,0.0254 0.0127,0.0381 -0.0127,0.0635 -0.1143,0.1524 0.0381,0.3048 0.2921,0.2667 0.81280001,0.2667 0.1143,0 0.2159,-0.0127 -0.0127,-0.0762 -0.0127,-0.1524 0,-0.4826 0.4953,-1.0540999 0.635,-0.7366 2.0192999,-1.0668 0.2032,-0.381 0.5588,-1.2446 0.635,-1.4986 1.1684,-2.3495 -0.3429,-1.0668 -1.143,-1.57479996 -0.0889,-0.0127 -0.2667,-0.0127 -0.8763,0 -1.7906999,0.68579995 -1.2319,0.9144 -1.53670002,2.286 0.38100002,0.7493 1.13030002,0.7493 0.0254,0 0.0381,0 0.508,0 0.9652,-0.3175 0.4571999,-0.3175 0.5079999,-0.7493 0,-0.0254 0.0254,-0.0381 0.0254,-0.0127 0.0508,0.0127 0.0254,0.0127 0.0254,0.0381 -0.0508,0.4699 -0.5460999,0.8128 -0.4953,0.3429 -1.0287,0.3429 -0.0127,0 -0.0381,0 -0.7112,0 -1.15570002,-0.5842 -0.0127,0.1143 -0.0127,0.2286 0,0.5207 0.26670002,0.9271 0.2667,0.4064 0.9017,0.4064 0.6477,0 1.0795,-0.3048 0.4444999,-0.3175 0.5841999,-0.508 0.1397,-0.2032 0.1524,-0.1397 0.0127,0.0508 -0.0254,0.127 -0.1397,0.3429 -0.7365999,0.7366 -0.5969,0.381 -1.1557,0.381 -0.5461,0 -0.889,-0.2159 -0.59690001,-0.4064 -0.59690001,-1.3335 0,-0.4445 0.1397,-0.889 -0.0889,-0.3048 -0.0889,-0.6604 0,-0.3683 0.1651,-0.8255 z M 1.7399,8.0771998 q 0.2032,0.5334 0.9525,0.5334 0.4064,0 0.8889999,-0.2159 0.8001,-0.3683 1.3462,-1.1049 0.5461,-0.7238999 0.8001,-1.6382999 -0.1524,-0.0127 -0.4445,-0.0127 -0.2794,0 -0.7239,0.0762 -1.1176,2.1208999 -2.8193999,2.3621999 z m 9.3472,-6.3499999 q 0.0635,0 0.0635,0.0762 0,0.0762 -0.0762,0.0762 -0.0127,0 -0.0254,0 -0.3683,0 -0.7112,0.635 -0.5588001,1.0414 -0.8636001,3.175 -0.0889,0.6604 -0.0889,0.8636 0,1.1175999 0.5714999,1.1175999 0.1651002,0 0.4191002,-0.1651 0.254,-0.1651 0.5334,-0.6096 0.0635,-0.1015999 0.1143,-0.0635 0.0508,0.0254 0,0.127 -0.2921,0.5715 -0.8128,0.8128 -0.2413002,0.127 -0.4826001,0.127 -0.2286,0 -0.4572,-0.1524 -0.4191,-0.2667 -0.4318,-1.0540999 0,-1.1176 0.5334,-2.8956 0.254,-0.8763 0.6985001,-1.4732 0.4445,-0.5969 0.9525,-0.5969 0.0254,0 0.0635,0 z M 4.2290999,0.31749995 q -0.5207,-0.2159 -1.1048999,-0.2159 -0.5842,0 -1.2319,0.39369999 -0.635,0.381 -0.8763,0.95249996 -0.24130001,0.5588 -0.24130001,1.0668 0,0.1397 0.0127,0.2794 l 0.11429999,-0.2286 Q 1.4097,1.6890999 2.3241,1.0667999 3.2384999,0.44449995 4.2290999,0.31749995 Z m 1.5367,5.21969995 q 0.1905,-0.762 0.1905,-1.5748 0,-0.8128 -0.127,-1.4224 -0.1905,0.4318 -0.5334,1.3716 -0.3429,0.9271 -0.4953,1.27 l -0.1651,0.381 q 0.3048,-0.0381 0.5969,-0.0381 0.2921,0 0.5334,0.0127 z M 1.6764,7.7977998 q 0,0.0635 0.0127,0.1143 Q 2.921,7.6707998 3.8988999,5.8419999 2.7051,6.1340999 2.1844,6.7436999 1.6764,7.3405998 1.6764,7.7977998 Z M 5.9816999,2.2224999 q 0.1905,0.6477 0.1905,1.4605 0,0.8128 -0.254,1.8669 l 0.381,0.0381 q 0.3048,-1.27 0.3048,-2.2606 0,-0.9906 -0.3175,-1.6764 -0.1524,0.254 -0.3048,0.5715 z m -0.127,-0.3683 q 0.0889,-0.1397 0.3175,-0.4191 -0.4445,-0.74929996 -1.3589,-0.91439996 0.7112,0.48259996 1.0414,1.33349996 z m 1.0668,3.9878 -0.3683,-0.1016 q -0.2794,0.8382 -0.635,1.5366999 0.2667,-0.127 1.0033,-1.4350999 z"
         style="font-family:'Lovers Quarrel';-inkscape-font-specification:'Lovers Quarrel'"
         id="path6087" />
      <path
         d="m 12.915902,4.2544999 q 0.2413,0.1905 0.2413,0.4826 0,0.2921 -0.2794,0.6731 h 0.254 q 0.1905,0 -0.0127,0.0762 -0.2032,0.0635 -0.381,0.1016 -0.127,0.1524 -0.2921,0.2794 -0.1651,0.1143 -0.1524,0.0127 l 0.0635,-0.1143 0.127,-0.1397 q -1.028699,0.0762 -1.092199,0.0889 -0.1397,0.3429 -0.1397,0.7366 0,0.3936999 0.1905,0.5587999 0.190499,0.1524 0.330199,0.1524 0.8763,0 1.778,-0.9524999 0.1143,-0.1143 0.1143,0.0127 0,0.0381 -0.0762,0.127 -0.254,0.3048 -0.7112,0.5841999 -0.7366,0.4699 -1.1938,0.4699 -0.444499,0 -0.711199,-0.2413 -0.2667,-0.254 -0.2667,-0.7619999 0,-0.1778 0.0508,-0.4699 0.0635,-0.2921 0.2921,-0.7493 0.2413,-0.4699 0.571499,-0.7874 0.3429,-0.3302 0.6604,-0.3302 0.3302,0 0.635,0.1905 z m -0.3048,1.1684 q 0.2159,-0.4445 0.2159,-0.7112 0,-0.2667 -0.2286,-0.2667 -0.2286,0 -0.5588,0.3175 -0.3302,0.3175 -0.5207,0.6858 0.9398,-0.0254 1.0922,-0.0254 z"
         style="font-family:'Lovers Quarrel';-inkscape-font-specification:'Lovers Quarrel'"
         id="path6089" />
      <path
         d="m 15.354307,4.6100999 q -0.3683,0.3175 -0.7366,0.8255 -0.3556,0.4953 -0.508,0.8763 -0.1524,0.3683 -0.1524,0.5460999 0,0.1651 0.1143,0.1651 0.3429,0 1.3843,-1.5239999 0.4064,-0.5207 0.4064,0.0127 -0.0127,0.0889 -0.0127,0.2286 0,0.4826 0.0254,0.8636 0.3429,-0.2286 0.6477,-0.508 0.3175,-0.2794 0.3175,-0.1905 0,0.0889 -0.1651,0.2667 -0.5461,0.5461 -0.7874,0.6984999 0.0508,0.3937 0.0508,0.9779 0,0.5969 -0.1905,1.3462 -0.2794,1.1430002 -1.0414,1.9685002 -0.5842,0.6223 -1.3335,0.9271 -0.4953,0.2286 -1.0668,0.2286 -0.9652,0 -1.524,-0.5588 -0.381,-0.4191 -0.381,-0.889 0,-0.9779002 1.7272,-2.1082002 0.762,-0.4826 1.8415,-1.0668 1.0795,-0.5842 1.5748,-0.8889999 -0.1651,-0.8128 -0.2159,-0.8636 -0.508,0.8001 -0.7366,1.0159999 -0.381,0.3556 -0.6223,0.3302 -0.4191,-0.0635 -0.4191,-0.5587999 0,-0.508 0.3175,-1.1176 0.3302,-0.6223 0.8636,-1.1176 0.5334,-0.4953 1.0668,-0.4953 0.254,0 0.4953,0.127 0.2159,0.127 0.2159,0.4064 0,0.2667 -0.2413,0.3048 0.0889,-0.1524 0.0889,-0.2794 0,-0.1397 -0.127,-0.2032 -0.1143,-0.0635 -0.2286,-0.0635 -0.2667,0 -0.6477,0.3175 z m -4.2164,5.4991001 q -0.508,0.5334 -0.508,0.889 0,0.3556 0.254,0.6096 0.3556,0.3556 1.143,0.3556 0.5969,0 1.27,-0.2794 0.8255,-0.3175 1.4351,-0.9652 0.9398,-1.0287002 0.9398,-2.6162002 0,-0.508 -0.0889,-1.0668 -3.6068,2.1717 -4.445,3.0734002 z"
         style="font-family:'Lovers Quarrel';-inkscape-font-specification:'Lovers Quarrel'"
         id="path6091" />
      <path
         d="m 27.431999,0.05079995 q 0.4699,0 0.4699,0.59689999 0,0.3175 -0.1651,1.71449996 -0.1524,1.3843 -0.1905,2.1844 0.635,-0.0381 0.7874,-0.1397 0.1524,-0.1016 0.1524,-0.0254 0.0127,0.0762 -0.2159,0.2159 -0.2159,0.127 -0.7239,0.2032 0,0.2286 0,0.7874 0,1.2318999 0.4191,1.6382999 0.1524,0.1524 0.254,0.1524 0.1143,0 0.254,-0.0508 0.1524,-0.0381 0.381,-0.2794 0.2286,-0.2539999 0.3937,-0.6349999 0.0508,-0.1143 0.0889,-0.0889 0.0508,0.0127 0.0508,0.0508 0,0.0381 -0.0127,0.0889 -0.1651,0.4698999 -0.5207,0.7873999 -0.7747,0.7112 -1.3843,0.1651 -0.3175,-0.2794 -0.4064,-0.8127999 -0.0762,-0.5334 -0.0762,-0.9652 0,-0.4445 0.0127,-0.7747 -0.1905,0.0127 -1.5875,0.0127 -0.6731,0.7366 -1.4478,1.3843 0.0889,0.0127 0.1905,0.0127 0.9144,0 1.6256,-0.9398 0.0508,-0.0635 0.0762,0.0127 v 0.0508 q -0.762,1.0033 -1.7018,1.0033 -0.1651,0 -0.3175,-0.0254 -1.9812,1.5874999 -3.3782,1.5874999 -0.7493,0 -1.1557,-0.4191 -0.254,-0.2794 -0.254,-0.6858 0,-0.5968999 0.4191,-1.0159999 0.4318,-0.4191 1.016,-0.6096 0.5969,-0.2032 1.5494,-0.3556 -0.3175,-0.7239 -0.3175,-1.4351 0,-1.9304 1.0922,-2.83209996 0.5842,-0.46989999 1.1938,-0.46989999 0.2159,0 0.4445,0.0635 0.8001,0.2032 1.0541,1.04139995 0.1016,0.3175 0.1016,0.6858 0,1.2192 -1.016,2.7305 h 0.5715 q 0.254,-0.254 1.0033,-1.2954 0.7493,-1.0541 1.1303,-1.5367 0.127,-0.8255 0.127,-1.06679996 0,-0.44449999 -0.2286,-0.44449999 -0.2667,0 -0.7112,0.52069999 -0.2413,0.27939996 -0.2921,0.39369996 -0.0508,0.1143 -0.127,0.0635 -0.0762,-0.1016 0.2286,-0.48259996 0.635,-0.76199999 1.143,-0.76199999 z m -3.0099,4.62279995 q 0.3048,-0.4445 0.5207,-0.889 0.4826,-0.9906 0.4826,-1.651 0,-0.6604 -0.2413,-1.0922 -0.4064,-0.73659995 -1.2446,-0.73659995 -0.8255,0 -1.4351,0.83819995 -0.5969,0.8382 -0.5969,2.2987 0,0.762 0.3048,1.4097 1.1557,-0.1651 2.2098,-0.1778 z m -5.207,2.032 q 0,0.3555999 0.3556,0.6095999 0.4445,0.3302 1.1811,0.3302 1.3335,0 2.8067,-1.3334999 l -0.2921,-0.1143 q -1.3081,1.1429999 -2.54,1.1429999 -0.3683,0 -0.7239,-0.1016 -0.0635,-0.0127 -0.0381,-0.0635 0.0254,-0.0508 0.0635,-0.0381 1.4859,0.3937 3.1115,-1.0159999 -0.5842,-0.3429 -0.9525,-0.9779 -1.2192,0.2413 -1.8288,0.4318 -1.143,0.3937 -1.143,1.1303 z m 6.4262,-2.1082 q 0.1778,0.0127 0.4953,0.0127 0.3302,0 0.889,-0.0254 0.0381,-0.9906 0.2413,-2.3241 -0.3175,0.5588 -0.6096,0.9525 -0.2794,0.381 -0.5842,0.8001 -0.2921,0.4064 -0.4318,0.5842 z m -1.3589,0.2667 q -0.9398,0.0889 -1.9304,0.254 0.381,0.6223 0.9017,0.9017 0.5461,-0.4953 1.0287,-1.1557 z m 0.7239,-0.0127 q -0.1143,-0.0127 -0.254,-0.0127 -0.1397,0 -0.2921,0.0127 -0.4953,0.7239 -1.0795,1.2446 0.1651,0.0635 0.2921,0.1016 0.2667,-0.254 0.7112,-0.7112 0.4445,-0.4699 0.6223,-0.635 z"
         style="font-family:'Lovers Quarrel';-inkscape-font-specification:'Lovers Quarrel'"
         id="path6093" />
      <path
         d="m 31.991288,7.0230998 q 0.381,0 0.9906,-0.6857999 l 0.0762,0.0508 q -0.0254,0.0762 -0.254,0.3175 -0.2286,0.2285999 -0.5588,0.4063999 -0.3175,0.1651 -0.4953,0.1651 -0.1651,0 -0.2667,-0.0381 -0.2286,-0.0762 -0.3683,-0.4444999 -0.127,-0.3683 -0.1524,-0.6858 -0.0254,-0.3302 -0.0127,-0.3429 -0.1016,0.1524 -0.1905,0.3048 -0.0762,0.1397 -0.1905,0.3048 -0.1143,0.1651 -0.254,0.3302 -0.4445,0.5841999 -0.762,0.5841999 -0.0254,0 -0.0381,0 -0.4826,-0.0762 -0.4826,-0.6857999 0,-0.9271 0.9271,-2.3114 0.0762,-0.1143 0.2286,-0.1143 0.1524,0 0.2921,0.0254 0.1905,0.0762 0.1778,0.1397 -0.3048,0.3048 -0.6477,0.9144 -0.5842,1.0668 -0.5842,1.5113 0,0.2412999 0.1524,0.2412999 0.1651,0 0.3683,-0.1778 0.2159,-0.1904999 0.3556,-0.3809999 0.1397,-0.1905 0.254,-0.3429 0.1143,-0.1651 0.2794,-0.4191 0.1651,-0.2667 0.254,-0.3937 0.0889,-0.127 0.1778,-0.1905 0.1016,-0.0762 0.1524,-0.0127 0.0635,0.0508 0.0508,0.2159 0,0.1524 0,0.2667 0,1.4477999 0.5207,1.4477999 z"
         style="font-family:'Lovers Quarrel';-inkscape-font-specification:'Lovers Quarrel'"
         id="path6095" />
      <path
         d="m 32.499291,7.5945998 q -0.4572,0 -0.4572,-0.2286 0,-0.0762 0.1143,-0.1524 0.1016,-0.0889 0.3048,-0.1016 1.2319,-0.1016 1.3208,-0.127 0.0889,-0.1397 0.0889,-0.3174999 0,-0.1905 -0.3429,-0.4826 -0.3429,-0.2921 -0.4953,-0.6096 -0.1524,-0.3175 -0.1524,-0.508 0,-0.1905 0.1016,-0.3556 0.4445,-0.7366 1.0414,-0.7366 0.508,0 0.6604,0.3429 0.0381,0.1016 0,0.1778 -0.0254,0.0762 -0.0635,0.0635 -0.0381,-0.0127 -0.0508,-0.0762 -0.0254,-0.2286 -0.2159,-0.2286 -0.1016,0 -0.2413,0.0635 -0.5207,0.2032 -0.7239,0.7112 -0.0508,0.127 -0.0508,0.2667 0,0.1397 0.0889,0.3429 0.0889,0.2032 0.2921,0.381 0.3556,0.3048 0.3556,0.635 0,0.127 -0.0635,0.2539999 0.6477,-0.3047999 1.0033,-0.5587999 l 0.0254,0.0127 q -0.0127,0.1651 -0.635,0.4952999 -0.2032,0.1143 -0.3556,0.2032 l -0.1397,0.0889 q -0.127,0.2413 -0.8255,0.3683 -0.3556,0.0762 -0.5842,0.0762 z"
         style="font-family:'Lovers Quarrel';-inkscape-font-specification:'Lovers Quarrel'"
         id="path6097" />
      <path
         d="m 36.67759,4.1655999 q 0.927099,0 0.927099,0.1143 0,0.0254 -0.304799,0.0635 -0.9779,0.1016 -1.0668,0.127 -0.6223,1.524 -0.6223,2.1717 0,0.2031999 0.0762,0.3047999 0.0889,0.0889 0.1905,0.0762 0.1143,-0.0127 0.1778,-0.0254 0.0762,-0.0127 0.2159,-0.0762 0.1524,-0.0762 0.2413,-0.1142999 0.2159,-0.1016 0.825499,-0.5715 0.2159,-0.1524 0.2286,-0.0635 0,0.1651 -0.685799,0.6476999 -0.6731,0.4826 -1.1049,0.4826 -0.0127,0 -0.0254,0 -0.3937,-0.0254 -0.508,-0.2159 -0.0508,-0.1016 -0.0508,-0.3047999 0,-0.2032 0.0381,-0.4826 0.0508,-0.2921 0.2032,-0.7366 0.1524,-0.4445 0.2667,-0.762 0.127,-0.3175 0.1143,-0.3175 -0.1397,0 -0.9398,0.1143 -0.0635,0.0127 -0.0635,-0.127 0,-0.1524 0.127,-0.2032 0.1397,-0.0508 0.9652,-0.0889 0.3937,-1.3462 0.5842,-1.7399 0.0381,-0.0889 0.1143,-0.0889 0.0762,0 0.2159,0.1778 0.1397,0.1778 0.1397,0.2667 0,0.0889 -0.0254,0.1397 l -0.6223,1.2446 q 0.1778,-0.0127 0.3683,-0.0127 z"
         style="font-family:'Lovers Quarrel';-inkscape-font-specification:'Lovers Quarrel'"
         id="path6099" />
      <path
         d="m 38.696889,3.3400999 q 0.0889,0 0.0889,0.0635 0,0.0508 -0.1524,0.2286 -0.3302,0.4064 -0.6477,0.1524 -0.0508,-0.0381 -0.0127,-0.0762 0.4445,-0.3683 0.7239,-0.3683 z m -0.9779,3.2258 q 0,0.3809999 0.2286,0.3809999 0.127,0 0.6223,-0.4063999 0.508,-0.4191 0.5461,-0.4572 0.0381,-0.0381 0.0635,-0.0127 0.0254,0.0127 0.0254,0.0381 0,0.0127 -0.0127,0.0381 -0.1905,0.3175 -0.8001,0.7619999 -0.4064,0.3302 -0.6858,0.3302 -0.4318,0 -0.4318,-0.7365999 0,-0.1397 0.0254,-0.3937 0.0254,-0.2667 0.4064,-1.6129 0.0254,-0.1016 0.2794,-0.1016 0.2667,0 0.2667,0.1524 0,0.1397 -0.1016,0.381 -0.0889,0.2286 -0.2159,0.254 -0.0635,0.0127 -0.1397,0.635 -0.0762,0.6223 -0.0762,0.7493 z"
         style="font-family:'Lovers Quarrel';-inkscape-font-specification:'Lovers Quarrel'"
         id="path6101" />
      <path
         d="m 42.202091,6.9722998 q 0,0.2921 -0.4953,0.5207 -0.1778,0.0762 -0.3556,0.0762 -0.4064,-0.0381 -0.5334,-0.2921 -0.1143,-0.2413 -0.1143,-0.4191 0,-0.1777999 0.0254,-0.4063999 0.0254,-0.2413 0.0889,-0.5715 0.0762,-0.3429 0.1778,-0.6731 0.1143,-0.3429 0.1143,-0.3556 -0.1143,0.1524 -0.508,0.6096 -1.016,1.1303 -1.1176,1.3969999 -0.0889,0.2667 -0.3683,0.3556 -0.1524,0.0508 -0.1524,-0.0635 0,-0.0254 0.0889,-0.3682999 0.2794,-1.0668 0.2794,-1.7018 l -0.0127,-0.3429 q 0,-0.2159 0.2921,-0.3556 0.127,-0.0635 0.2286,-0.0635 0.1778,0 0.1397,0.1778 -0.0381,0.1651 -0.127,0.635 -0.2032,1.1049 -0.254,1.2065 0.7493,-0.6858 1.6129,-2.032 0.0508,-0.0889 0.1524,-0.0889 0.3683,0 0.4064,0.127 0.0254,0.0889 -0.1397,0.5715 -0.1524,0.4699 -0.2286,0.7747 -0.1905,0.7747 -0.1905,1.1176 0,0.3301999 0.0508,0.4698999 0.0508,0.1397 0.1778,0.127 0.3683,-0.0508 0.7112,-0.4699 0.0508,-0.0508 0.0508,0.0381 z"
         style="font-family:'Lovers Quarrel';-inkscape-font-specification:'Lovers Quarrel'"
         id="path6103" />
      <path
         d="m 8.3819999,17.70526 q 0.4699,0 0.4699,0.5969 0,0.3175 -0.1651,1.7145 -0.1524,1.3843 -0.1905,2.1844 0.635,-0.0381 0.7874,-0.1397 0.1524,-0.1016 0.1524,-0.0254 0.0127,0.0762 -0.2159,0.2159 -0.2159,0.127 -0.7239,0.2032 0,0.2286 0,0.7874 0,1.2319 0.4191,1.6383 0.1524,0.1524 0.254,0.1524 0.1143,0 0.254,-0.0508 0.1524,-0.0381 0.381,-0.2794 0.2286001,-0.254 0.3937001,-0.635 0.0508,-0.1143 0.0889,-0.0889 0.0508,0.0127 0.0508,0.0508 0,0.0381 -0.0127,0.0889 -0.1651,0.4699 -0.5207001,0.7874 -0.7747,0.7112 -1.3843,0.1651 -0.3175,-0.2794 -0.4064,-0.8128 -0.0762,-0.5334 -0.0762,-0.9652 0,-0.4445 0.0127,-0.7747 -0.1905,0.0127 -1.5875,0.0127 -0.6731,0.7366 -1.4478,1.3843 0.0889,0.0127 0.1905,0.0127 0.9144,0 1.6256,-0.9398 0.0508,-0.0635 0.0762,0.0127 v 0.0508 q -0.762,1.0033 -1.7018,1.0033 -0.1651,0 -0.3175,-0.0254 -1.9811999,1.5875 -3.3781999,1.5875 -0.74930001,0 -1.15570001,-0.4191 Q 0,24.91886 0,24.51246 q 0,-0.5969 0.41909999,-1.016 0.4318,-0.4191 1.01600001,-0.6096 0.5969,-0.2032 1.5494,-0.3556 -0.3175,-0.7239 -0.3175,-1.4351 0,-1.9304 1.0921999,-2.8321 0.5842,-0.4699 1.1938,-0.4699 0.2159,0 0.4445,0.0635 0.8001,0.2032 1.0541,1.0414 0.1016,0.3175 0.1016,0.6858 0,1.2192 -1.016,2.7305 h 0.5715 q 0.254,-0.254 1.0033,-1.2954 0.7493,-1.0541 1.1303,-1.5367 0.127,-0.8255 0.127,-1.0668 0,-0.4445 -0.2286,-0.4445 -0.2667,0 -0.7112,0.5207 -0.2413,0.2794 -0.2921,0.3937 -0.0508,0.1143 -0.127,0.0635 -0.0762,-0.1016 0.2286,-0.4826 0.635,-0.762 1.143,-0.762 z m -3.0099,4.6228 q 0.3048,-0.4445 0.5207,-0.889 0.4826,-0.9906 0.4826,-1.651 0,-0.6604 -0.2413,-1.0922 -0.4064,-0.7366 -1.2446,-0.7366 -0.8255,0 -1.4351,0.8382 -0.5968999,0.8382 -0.5968999,2.2987 0,0.762 0.3048,1.4097 1.1556999,-0.1651 2.2097999,-0.1778 z M 0.1651,24.36006 q 0,0.3556 0.35559999,0.6096 0.44449999,0.3302 1.18110001,0.3302 1.3335,0 2.8066999,-1.3335 l -0.2921,-0.1143 q -1.3080999,1.143 -2.5399999,1.143 -0.3683,0 -0.72390002,-0.1016 -0.0635,-0.0127 -0.0381,-0.0635 0.0254,-0.0508 0.0635,-0.0381 1.48590002,0.3937 3.11149992,-1.016 -0.5842,-0.3429 -0.9524999,-0.9779 -1.2192,0.2413 -1.8288,0.4318 -1.143,0.3937 -1.143,1.1303 z m 6.4261999,-2.1082 q 0.1778,0.0127 0.4953,0.0127 0.3302,0 0.889,-0.0254 0.0381,-0.9906 0.2413,-2.3241 -0.3175,0.5588 -0.6096,0.9525 -0.2794,0.381 -0.5842,0.8001 -0.2921,0.4064 -0.4318,0.5842 z m -1.3589,0.2667 q -0.9398,0.0889 -1.9304,0.254 0.381,0.6223 0.9017,0.9017 0.5461,-0.4953 1.0287,-1.1557 z m 0.7239,-0.0127 q -0.1143,-0.0127 -0.254,-0.0127 -0.1397,0 -0.2921,0.0127 -0.4953,0.7239 -1.0795,1.2446 0.1651,0.0635 0.2921,0.1016 0.2667,-0.254 0.7112,-0.7112 0.4445,-0.4699 0.6223,-0.635 z"
         style="font-family:'Lovers Quarrel';-inkscape-font-specification:'Lovers Quarrel'"
         id="path6105" />
      <path
         d="m 12.103089,21.90896 q 0.2413,0.1905 0.2413,0.4826 0,0.2921 -0.2794,0.6731 h 0.254 q 0.1905,0 -0.0127,0.0762 -0.2032,0.0635 -0.381,0.1016 -0.127,0.1524 -0.2921,0.2794 -0.1651,0.1143 -0.1524,0.0127 l 0.0635,-0.1143 0.127,-0.1397 q -1.0287,0.0762 -1.0922,0.0889 -0.1397,0.3429 -0.1397,0.7366 0,0.3937 0.1905,0.5588 0.1905,0.1524 0.3302,0.1524 0.8763,0 1.778,-0.9525 0.1143,-0.1143 0.1143,0.0127 0,0.0381 -0.0762,0.127 -0.254,0.3048 -0.7112,0.5842 -0.7366,0.4699 -1.1938,0.4699 -0.4445,0 -0.7112,-0.2413 -0.2667002,-0.254 -0.2667002,-0.762 0,-0.1778 0.0508,-0.4699 0.0635,-0.2921 0.2921002,-0.7493 0.2413,-0.4699 0.5715,-0.7874 0.3429,-0.3302 0.6604,-0.3302 0.3302,0 0.635,0.1905 z m -0.3048,1.1684 q 0.2159,-0.4445 0.2159,-0.7112 0,-0.2667 -0.2286,-0.2667 -0.2286,0 -0.5588,0.3175 -0.3302,0.3175 -0.5207,0.6858 0.9398,-0.0254 1.0922,-0.0254 z"
         style="font-family:'Lovers Quarrel';-inkscape-font-specification:'Lovers Quarrel'"
         id="path6107" />
      <path
         d="m 15.176494,22.45506 q -0.1651,-0.2159 -0.3429,-0.2159 -0.508,0 -1.2319,1.1176 -0.3683,0.5588 -0.635,1.4605 -0.0127,0.1016 -0.1143,0.1016 -0.1143,0 -0.1143,-0.1016 l 0.1905,-1.3462 q 0.127,-1.016 0.1397,-1.27 0.0127,-0.2667 0.3429,-0.3683 0.1016,-0.0254 0.2032,-0.0254 0.1143,0 0.127,0.1143 0,0.0381 -0.0127,0.0889 -0.0127,0.0381 -0.1905,0.6731 -0.1651,0.6223 -0.2159,0.7366 0.3048,-0.5334 0.7747,-1.0287 0.4699,-0.508 0.7239,-0.508 0.0127,0 0.0127,0 0.3429,0 0.4445,0.4191 0.0254,0.1016 0.0254,0.1778 0,0.0635 -0.0381,0.0635 -0.0381,0.0127 -0.0889,-0.0889 z"
         style="font-family:'Lovers Quarrel';-inkscape-font-specification:'Lovers Quarrel'"
         id="path6109" />
      <path
         d="m 16.548095,20.99456 q 0.0889,0 0.0889,0.0635 0,0.0508 -0.1524,0.2286 -0.3302,0.4064 -0.6477,0.1524 -0.0508,-0.0381 -0.0127,-0.0762 0.4445,-0.3683 0.7239,-0.3683 z m -0.9779,3.2258 q 0,0.381 0.2286,0.381 0.127,0 0.6223,-0.4064 0.508,-0.4191 0.5461,-0.4572 0.0381,-0.0381 0.0635,-0.0127 0.0254,0.0127 0.0254,0.0381 0,0.0127 -0.0127,0.0381 -0.1905,0.3175 -0.8001,0.762 -0.4064,0.3302 -0.6858,0.3302 -0.4318,0 -0.4318,-0.7366 0,-0.1397 0.0254,-0.3937 0.0254,-0.2667 0.4064,-1.6129 0.0254,-0.1016 0.2794,-0.1016 0.2667,0 0.2667,0.1524 0,0.1397 -0.1016,0.381 -0.0889,0.2286 -0.2159,0.254 -0.0635,0.0127 -0.1397,0.635 -0.0762,0.6223 -0.0762,0.7493 z"
         style="font-family:'Lovers Quarrel';-inkscape-font-specification:'Lovers Quarrel'"
         id="path6111" />
      <path
         d="m 17.970496,23.09006 q -0.3683,0.4953 -0.5207,0.8636 -0.152399,0.3683 -0.152399,0.5461 0,0.1778 0.114299,0.1778 0.3429,0 1.3843,-1.524 0.4064,-0.5207 0.4064,0.0127 -0.0254,0.3302 -0.0254,0.5588 0,0.9652 0.4064,0.9652 0.4318,0 1.0541,-0.6985 0.0381,-0.0381 0.0889,0.0508 -0.0381,0.0889 -0.2667,0.3175 -0.2159,0.2159 -0.5461,0.3937 -0.3302,0.1778 -0.508,0.1778 -0.1651,0 -0.2667,-0.0381 -0.4699,-0.1651 -0.4699,-1.2954 -0.508,0.8001 -0.7366,1.016 -0.3556,0.3302 -0.5842,0.3302 -0.0127,0 -0.0381,0 -0.4191,-0.0635 -0.4191,-0.5588 0,-0.508 0.3175,-1.1176 0.330199,-0.6223 0.863599,-1.1176 0.5334,-0.4953 1.0668,-0.4953 0.254,0 0.4953,0.127 0.2159,0.127 0.2159,0.4064 0,0.2667 -0.2413,0.3048 0.0889,-0.1524 0.0889,-0.2794 0,-0.1397 -0.127,-0.2032 -0.127,-0.0635 -0.2286,-0.0635 -0.5461,0 -1.3716,1.143 z"
         style="font-family:'Lovers Quarrel';-inkscape-font-specification:'Lovers Quarrel'"
         id="path6113" />
      <path
         d="m 21.069285,22.59476 q -0.2921,1.0414 -0.2921,1.4986 0,0.4572 0.1143,0.5461 0.127,0.0889 0.3048,0.0889 0.1778,0 0.5969,-0.1905 0.4191,-0.1905 0.6477,-0.4826 0.2286,-0.2921 0.2159,-0.1397 -0.0127,0.127 -0.0762,0.2286 -0.2286,0.2921 -0.7493,0.5588 -0.5207,0.254 -0.8255,0.254 -0.0762,0 -0.1397,-0.0127 -0.4953,-0.1143 -0.4953,-0.9017 0,-0.3683 0.1143,-0.9017 -0.127,0.0254 -0.127,-0.0635 0,-0.1143 0.2286,-0.3556 0.762,-3.175 2.0066,-4.2164 0.2794,-0.2286 0.508,-0.2286 0.4953,0 0.4953,0.4572 -0.0254,1.016 -0.9398,2.1463 -0.4699,0.5715 -0.762,0.8763 -0.2794,0.3048 -0.8255,0.8382 z m 2.3368,-3.81 q 0,-0.3175 -0.1651,-0.3175 -0.5207,0 -1.397,1.9304 -0.508,1.1557 -0.7366,1.9177 0.6985,-0.6604 1.4986,-1.7526 0.8001,-1.0922 0.8001,-1.778 z"
         style="font-family:'Lovers Quarrel';-inkscape-font-specification:'Lovers Quarrel'"
         id="path6115" />
      <path
         d="m 23.748991,24.62676 q 0,0.2413 -0.3683,0.7239 -0.3556,0.4953 -0.7493,0.7239 -0.2032,0.127 -0.2667,0.127 -0.0508,0 -0.0508,-0.0254 0,-0.0762 0.1651,-0.2667 0.2413,-0.2413 0.6477,-0.9017 -0.2286,-0.0381 -0.2286,-0.3556 0,-0.1524 0.1397,-0.2794 0.1397,-0.1397 0.3937,-0.1397 0.3175,0 0.3175,0.3937 z"
         style="font-family:'Lovers Quarrel';-inkscape-font-specification:'Lovers Quarrel'"
         id="path6117" />
      <path
         d="m 33.654998,19.86426 q 0.2667,0.0635 0.2667,0.2032 0,0.0889 -0.1397,0.0127 l -0.1397,-0.0635 q -0.0889,0.7493 -0.7747,1.4986 -1.1684,1.2573 -2.5654,1.2573 -0.8001,0 -1.1938,-0.4445 -0.2413,-0.2667 -0.2413,-0.5588 0,-0.6731 0.7747,-1.3081 0.4953,-0.4191 1.2573,-0.6223 0.762,-0.2159 1.4351,-0.2159 0.1397,0 0.2921,0.0127 0,-0.635 -0.6858,-0.8382 -0.2413,-0.0635 -0.508,-0.0635 -0.6731,0 -1.4605,0.4445 -1.1049,0.6223 -1.8034,1.8923 -0.5461,1.016 -0.6604,2.1717 0.3175,0.8509 1.0287,1.3081 0.7112,0.4572 1.5875,0.4572 0.3429,0 0.889,-0.1016 0.2286,-0.4191 0.2286,-0.8509 0,-0.6731 -0.4191,-0.9017 -0.0254,-0.0127 -0.0254,-0.0381 0.0254,-0.0762 0.0762,-0.0508 0.5207,0.2794 0.5207,1.0033 0,0.3937 -0.2032,0.7874 1.2954,-0.3937 1.9304,-1.4097 0.2921,-0.4826 0.381,-0.4826 0.0508,0 0.0508,0.0762 0,0.1397 -0.2921,0.5588 -0.2794,0.4191 -0.9017,0.889 -0.6096,0.4699 -1.3716,0.7112 -0.635,0.889 -1.6764,0.889 -0.7747,0 -1.3589,-0.635 -0.4318,-0.4572 -0.5588,-1.1557 -0.6731,-0.8255 -0.6731,-1.9812 0,-1.1684 0.7493,-2.2606 0.7493,-1.1049 2.1336,-1.6256 0.8128,-0.3048 1.4605,-0.3048 0.6477,0 1.1938,0.1524 0.5588,0.1524 0.9779,0.5715 0.4318,0.4191 0.4191,1.016 z m -3.4798,1.7907 q -0.2921,0 -0.3048,-0.0635 0,-0.0635 0.1143,-0.0508 0.127,0 0.1651,0 0.6604,0 1.27,-0.2794 0.6096,-0.2921 0.8636,-0.7112 0.254,-0.4191 0.3175,-0.7112 -0.762,0 -1.5621,0.254 -0.7874,0.2413 -1.1811,0.5842 -0.6096,0.5334 -0.6096,1.0541 0,0.3683 0.4064,0.6731 0.2667,0.1778 0.6858,0.1778 0.4191,0 0.9271,-0.1524 0.8382,-0.2921 1.4986,-1.0287 0.6731,-0.7366 0.6604,-1.4605 -0.3556,-0.0889 -0.6985,-0.1016 -0.0635,0.3429 -0.2921,0.6604 -0.3937,0.5842 -1.0033,0.8763 -0.6096,0.2794 -1.2573,0.2794 z m 0.2413,-2.8575 q 0.5461,-0.1905 1.0033,-0.1905 0.4572,0 0.8255,0.1905 0.5334,0.2921 0.508,0.8509 0.3429,0.0127 0.6477,0.1143 -0.127,-0.8255 -1.1938,-1.2192 -0.4064,-0.1651 -0.9652,-0.1651 -0.5461,0 -1.1811,0.1778 -0.6223,0.1651 -1.2573,0.6858 -0.6223,0.5207 -1.0414,1.3462 -0.4191,0.8128 -0.4191,1.6256 0,0.3175 0.0635,0.6477 0.1397,-1.016 0.6477,-1.9304 0.889,-1.6129 2.3622,-2.1336 z m 0.3429,6.4643 q -0.508,0.1143 -1.016,0.1143 -1.2954,0 -2.159,-0.8636 0.2032,0.7874 0.7747,1.1684 0.4445,0.2921 0.9398,0.2921 0.8509,0 1.4605,-0.7112 z"
         style="font-family:'Lovers Quarrel';-inkscape-font-specification:'Lovers Quarrel'"
         id="path6119" />
      <path
         d="m 36.575992,22.60746 0.5969,-0.0635 q 0.0381,0 0.0381,0.0254 0,0.0254 -0.0381,0.0635 l -0.1016,0.0889 q -0.3048,0.1397 -0.6223,0.1397 -0.3175,0 -0.4191,-0.0508 0,0.0254 0,0.1397 0,0.1143 -0.127,0.4953 -0.1143,0.381 -0.3556,0.8001 -0.2413,0.4191 -0.5207,0.6096 -0.2794,0.1905 -0.4191,0.1905 -0.127,0 -0.2794,-0.0381 -0.1397,-0.0381 -0.3175,-0.2667 -0.2032,-0.2286 -0.2032,-0.635 0,-0.4191 0.127,-0.8509 0.4699,-1.4224 1.1557,-1.4859 0.0889,-0.1016 0.2159,-0.1016 0.1397,0 0.3556,0.127 0.381,0.2413 0.4191,0.5969 0.1778,0.2159 0.4953,0.2159 z m -1.3462,-0.4064 q -0.2159,0.0508 -0.4699,0.4953 -0.254,0.4445 -0.381,0.889 -0.1143,0.4445 -0.1143,0.762 0,0.3048 0.2286,0.4191 0.0635,0.0254 0.1397,0.0254 0.3048,0 0.6858,-0.5969 0.2159,-0.3429 0.3429,-0.762 0.127,-0.4191 0.127,-0.5334 0,-0.1143 -0.0127,-0.1524 -0.2413,-0.0381 -0.381,-0.1778 -0.1397,-0.1397 -0.1524,-0.254 z"
         style="font-family:'Lovers Quarrel';-inkscape-font-specification:'Lovers Quarrel'"
         id="path6121" />
      <path
         d="m 39.890701,24.62676 q 0,0.2921 -0.4953,0.5207 -0.1778,0.0762 -0.3556,0.0762 -0.4064,-0.0381 -0.5334,-0.2921 -0.1143,-0.2413 -0.1143,-0.4191 0,-0.1778 0.0254,-0.4064 0.0254,-0.2413 0.0889,-0.5715 0.0762,-0.3429 0.1778,-0.6731 0.1143,-0.3429 0.1143,-0.3556 -0.1143,0.1524 -0.508,0.6096 -1.016,1.1303 -1.1176,1.397 -0.0889,0.2667 -0.3683,0.3556 -0.1524,0.0508 -0.1524,-0.0635 0,-0.0254 0.0889,-0.3683 0.2794,-1.0668 0.2794,-1.7018 l -0.0127,-0.3429 q 0,-0.2159 0.2921,-0.3556 0.127,-0.0635 0.2286,-0.0635 0.1778,0 0.1397,0.1778 -0.0381,0.1651 -0.127,0.635 -0.2032,1.1049 -0.254,1.2065 0.7493,-0.6858 1.6129,-2.032 0.0508,-0.0889 0.1524,-0.0889 0.3683,0 0.4064,0.127 0.0254,0.0889 -0.1397,0.5715 -0.1524,0.4699 -0.2286,0.7747 -0.1905,0.7747 -0.1905,1.1176 0,0.3302 0.0508,0.4699 0.0508,0.1397 0.1778,0.127 0.3683,-0.0508 0.7112,-0.4699 0.0508,-0.0508 0.0508,0.0381 z"
         style="font-family:'Lovers Quarrel';-inkscape-font-specification:'Lovers Quarrel'"
         id="path6123" />
      <path
         d="m 41.503605,21.82006 q 0.9271,0 0.9271,0.1143 0,0.0254 -0.3048,0.0635 -0.9779,0.1016 -1.0668,0.127 -0.6223,1.524 -0.6223,2.1717 0,0.2032 0.0762,0.3048 0.0889,0.0889 0.1905,0.0762 0.1143,-0.0127 0.1778,-0.0254 0.0762,-0.0127 0.2159,-0.0762 0.1524,-0.0762 0.2413,-0.1143 0.2159,-0.1016 0.8255,-0.5715 0.2159,-0.1524 0.2286,-0.0635 0,0.1651 -0.6858,0.6477 -0.6731,0.4826 -1.1049,0.4826 -0.0127,0 -0.0254,0 -0.3937,-0.0254 -0.508,-0.2159 -0.0508,-0.1016 -0.0508,-0.3048 0,-0.2032 0.0381,-0.4826 0.0508,-0.2921 0.2032,-0.7366 0.1524,-0.4445 0.2667,-0.762 0.127,-0.3175 0.1143,-0.3175 -0.1397,0 -0.9398,0.1143 -0.0635,0.0127 -0.0635,-0.127 0,-0.1524 0.127,-0.2032 0.1397,-0.0508 0.9652,-0.0889 0.3937,-1.3462 0.5842,-1.7399 0.0381,-0.0889 0.1143,-0.0889 0.0762,0 0.2159,0.1778 0.1397,0.1778 0.1397,0.2667 0,0.0889 -0.0254,0.1397 l -0.6223,1.2446 q 0.1778,-0.0127 0.3683,-0.0127 z"
         style="font-family:'Lovers Quarrel';-inkscape-font-specification:'Lovers Quarrel'"
         id="path6125" />
      <path
         d="m 44.8945,22.60746 0.5969,-0.0635 q 0.0381,0 0.0381,0.0254 0,0.0254 -0.0381,0.0635 l -0.1016,0.0889 q -0.3048,0.1397 -0.6223,0.1397 -0.3175,0 -0.4191,-0.0508 0,0.0254 0,0.1397 0,0.1143 -0.127,0.4953 -0.1143,0.381 -0.3556,0.8001 -0.2413,0.4191 -0.5207,0.6096 -0.2794,0.1905 -0.4191,0.1905 -0.127,0 -0.2794,-0.0381 -0.1397,-0.0381 -0.3175,-0.2667 -0.2032,-0.2286 -0.2032,-0.635 0,-0.4191 0.127,-0.8509 0.4699,-1.4224 1.1557,-1.4859 0.0889,-0.1016 0.2159,-0.1016 0.1397,0 0.3556,0.127 0.381,0.2413 0.4191,0.5969 0.1778,0.2159 0.4953,0.2159 z m -1.3462,-0.4064 q -0.2159,0.0508 -0.4699,0.4953 -0.254,0.4445 -0.381,0.889 -0.1143,0.4445 -0.1143,0.762 0,0.3048 0.2286,0.4191 0.0635,0.0254 0.1397,0.0254 0.3048,0 0.6858,-0.5969 0.2159,-0.3429 0.3429,-0.762 0.127,-0.4191 0.127,-0.5334 0,-0.1143 -0.0127,-0.1524 -0.2413,-0.0381 -0.381,-0.1778 -0.1397,-0.1397 -0.1524,-0.254 z"
         style="font-family:'Lovers Quarrel';-inkscape-font-specification:'Lovers Quarrel'"
         id="path6127" />
      <path
         d="m 47.383709,22.45506 q -0.1651,-0.2159 -0.3429,-0.2159 -0.508,0 -1.2319,1.1176 -0.3683,0.5588 -0.635,1.4605 -0.0127,0.1016 -0.1143,0.1016 -0.1143,0 -0.1143,-0.1016 l 0.1905,-1.3462 q 0.127,-1.016 0.1397,-1.27 0.0127,-0.2667 0.3429,-0.3683 0.1016,-0.0254 0.2032,-0.0254 0.1143,0 0.127,0.1143 0,0.0381 -0.0127,0.0889 -0.0127,0.0381 -0.1905,0.6731 -0.1651,0.6223 -0.2159,0.7366 0.3048,-0.5334 0.7747,-1.0287 0.4699,-0.508 0.7239,-0.508 0.0127,0 0.0127,0 0.3429,0 0.4445,0.4191 0.0254,0.1016 0.0254,0.1778 0,0.0635 -0.0381,0.0635 -0.0381,0.0127 -0.0889,-0.0889 z"
         style="font-family:'Lovers Quarrel';-inkscape-font-specification:'Lovers Quarrel'"
         id="path6129" />
      <path
         d="m 48.856911,21.82006 q 0.9271,0 0.9271,0.1143 0,0.0254 -0.3048,0.0635 -0.9779,0.1016 -1.0668,0.127 -0.6223,1.524 -0.6223,2.1717 0,0.2032 0.0762,0.3048 0.0889,0.0889 0.1905,0.0762 0.1143,-0.0127 0.1778,-0.0254 0.0762,-0.0127 0.2159,-0.0762 0.1524,-0.0762 0.2413,-0.1143 0.2159,-0.1016 0.8255,-0.5715 0.2159,-0.1524 0.2286,-0.0635 0,0.1651 -0.6858,0.6477 -0.6731,0.4826 -1.1049,0.4826 -0.0127,0 -0.0254,0 -0.3937,-0.0254 -0.508,-0.2159 -0.0508,-0.1016 -0.0508,-0.3048 0,-0.2032 0.0381,-0.4826 0.0508,-0.2921 0.2032,-0.7366 0.1524,-0.4445 0.2667,-0.762 0.127,-0.3175 0.1143,-0.3175 -0.1397,0 -0.9398,0.1143 -0.0635,0.0127 -0.0635,-0.127 0,-0.1524 0.127,-0.2032 0.1397,-0.0508 0.9652,-0.0889 0.3937,-1.3462 0.5842,-1.7399 0.0381,-0.0889 0.1143,-0.0889 0.0762,0 0.2159,0.1778 0.1397,0.1778 0.1397,0.2667 0,0.0889 -0.0254,0.1397 l -0.6223,1.2446 q 0.1778,-0.0127 0.3683,-0.0127 z"
         style="font-family:'Lovers Quarrel';-inkscape-font-specification:'Lovers Quarrel'"
         id="path6131" />
      <path
         d="m 50.876206,20.99456 q 0.0889,0 0.0889,0.0635 0,0.0508 -0.1524,0.2286 -0.3302,0.4064 -0.6477,0.1524 -0.0508,-0.0381 -0.0127,-0.0762 0.4445,-0.3683 0.7239,-0.3683 z m -0.9779,3.2258 q 0,0.381 0.2286,0.381 0.127,0 0.6223,-0.4064 0.508,-0.4191 0.5461,-0.4572 0.0381,-0.0381 0.0635,-0.0127 0.0254,0.0127 0.0254,0.0381 0,0.0127 -0.0127,0.0381 -0.1905,0.3175 -0.8001,0.762 -0.4064,0.3302 -0.6858,0.3302 -0.4318,0 -0.4318,-0.7366 0,-0.1397 0.0254,-0.3937 0.0254,-0.2667 0.4064,-1.6129 0.0254,-0.1016 0.2794,-0.1016 0.2667,0 0.2667,0.1524 0,0.1397 -0.1016,0.381 -0.0889,0.2286 -0.2159,0.254 -0.0635,0.0127 -0.1397,0.635 -0.0762,0.6223 -0.0762,0.7493 z"
         style="font-family:'Lovers Quarrel';-inkscape-font-specification:'Lovers Quarrel'"
         id="path6133" />
      <path
         d="m 54.051208,22.60746 0.5969,-0.0635 q 0.0381,0 0.0381,0.0254 0,0.0254 -0.0381,0.0635 l -0.1016,0.0889 q -0.3048,0.1397 -0.6223,0.1397 -0.3175,0 -0.4191,-0.0508 0,0.0254 0,0.1397 0,0.1143 -0.127,0.4953 -0.1143,0.381 -0.3556,0.8001 -0.2413,0.4191 -0.5207,0.6096 -0.2794,0.1905 -0.4191,0.1905 -0.127,0 -0.2794,-0.0381 -0.1397,-0.0381 -0.3175,-0.2667 -0.2032,-0.2286 -0.2032,-0.635 0,-0.4191 0.127,-0.8509 0.4699,-1.4224 1.1557,-1.4859 0.0889,-0.1016 0.2159,-0.1016 0.1397,0 0.3556,0.127 0.381,0.2413 0.4191,0.5969 0.1778,0.2159 0.4953,0.2159 z m -1.3462,-0.4064 q -0.2159,0.0508 -0.4699,0.4953 -0.254,0.4445 -0.381,0.889 -0.1143,0.4445 -0.1143,0.762 0,0.3048 0.2286,0.4191 0.0635,0.0254 0.1397,0.0254 0.3048,0 0.6858,-0.5969 0.2159,-0.3429 0.3429,-0.762 0.127,-0.4191 0.127,-0.5334 0,-0.1143 -0.0127,-0.1524 -0.2413,-0.0381 -0.381,-0.1778 -0.1397,-0.1397 -0.1524,-0.254 z"
         style="font-family:'Lovers Quarrel';-inkscape-font-specification:'Lovers Quarrel'"
         id="path6135" />
      <path
         d="m 57.365917,24.62676 q 0,0.2921 -0.4953,0.5207 -0.1778,0.0762 -0.3556,0.0762 -0.4064,-0.0381 -0.5334,-0.2921 -0.1143,-0.2413 -0.1143,-0.4191 0,-0.1778 0.0254,-0.4064 0.0254,-0.2413 0.0889,-0.5715 0.0762,-0.3429 0.1778,-0.6731 0.1143,-0.3429 0.1143,-0.3556 -0.1143,0.1524 -0.508,0.6096 -1.016,1.1303 -1.1176,1.397 -0.0889,0.2667 -0.3683,0.3556 -0.1524,0.0508 -0.1524,-0.0635 0,-0.0254 0.0889,-0.3683 0.2794,-1.0668 0.2794,-1.7018 l -0.0127,-0.3429 q 0,-0.2159 0.2921,-0.3556 0.127,-0.0635 0.2286,-0.0635 0.1778,0 0.1397,0.1778 -0.0381,0.1651 -0.127,0.635 -0.2032,1.1049 -0.254,1.2065 0.7493,-0.6858 1.6129,-2.032 0.0508,-0.0889 0.1524,-0.0889 0.3683,0 0.4064,0.127 0.0254,0.0889 -0.1397,0.5715 -0.1524,0.4699 -0.2286,0.7747 -0.1905,0.7747 -0.1905,1.1176 0,0.3302 0.0508,0.4699 0.0508,0.1397 0.1778,0.127 0.3683,-0.0508 0.7112,-0.4699 0.0508,-0.0508 0.0508,0.0381 z"
         style="font-family:'Lovers Quarrel';-inkscape-font-specification:'Lovers Quarrel'"
         id="path6137" />
      <path
         d="m 58.750221,24.62676 q 0,0.2413 -0.3683,0.7239 -0.3556,0.4953 -0.7493,0.7239 -0.2032,0.127 -0.2667,0.127 -0.0508,0 -0.0508,-0.0254 0,-0.0762 0.1651,-0.2667 0.2413,-0.2413 0.6477,-0.9017 -0.2286,-0.0381 -0.2286,-0.3556 0,-0.1524 0.1397,-0.2794 0.1397,-0.1397 0.3937,-0.1397 0.3175,0 0.3175,0.3937 z"
         style="font-family:'Lovers Quarrel';-inkscape-font-specification:'Lovers Quarrel'"
         id="path6139" />
      <path
         d="m 62.80153,23.09006 q -0.3683,0.4953 -0.5207,0.8636 -0.1524,0.3683 -0.1524,0.5461 0,0.1778 0.1143,0.1778 0.3429,0 1.3843,-1.524 0.4064,-0.5207 0.4064,0.0127 -0.0254,0.3302 -0.0254,0.5588 0,0.9652 0.4064,0.9652 0.4318,0 1.0541,-0.6985 0.0381,-0.0381 0.0889,0.0508 -0.0381,0.0889 -0.2667,0.3175 -0.2159,0.2159 -0.5461,0.3937 -0.3302,0.1778 -0.508,0.1778 -0.1651,0 -0.2667,-0.0381 -0.4699,-0.1651 -0.4699,-1.2954 -0.508,0.8001 -0.7366,1.016 -0.3556,0.3302 -0.5842,0.3302 -0.0127,0 -0.0381,0 -0.4191,-0.0635 -0.4191,-0.5588 0,-0.508 0.3175,-1.1176 0.3302,-0.6223 0.8636,-1.1176 0.5334,-0.4953 1.0668,-0.4953 0.254,0 0.4953,0.127 0.2159,0.127 0.2159,0.4064 0,0.2667 -0.2413,0.3048 0.0889,-0.1524 0.0889,-0.2794 0,-0.1397 -0.127,-0.2032 -0.127,-0.0635 -0.2286,-0.0635 -0.5461,0 -1.3716,1.143 z"
         style="font-family:'Lovers Quarrel';-inkscape-font-specification:'Lovers Quarrel'"
         id="path6141" />
      <path
         d="m 68.300617,24.62676 q 0,0.2921 -0.4953,0.5207 -0.1778,0.0762 -0.3556,0.0762 -0.4064,-0.0381 -0.5334,-0.2921 -0.1143,-0.2413 -0.1143,-0.4191 0,-0.1778 0.0254,-0.4064 0.0254,-0.2413 0.0889,-0.5715 0.0762,-0.3429 0.1778,-0.6731 0.1143,-0.3429 0.1143,-0.3556 -0.1143,0.1524 -0.508,0.6096 -1.016,1.1303 -1.1176,1.397 -0.0889,0.2667 -0.3683,0.3556 -0.1524,0.0508 -0.1524,-0.0635 0,-0.0254 0.0889,-0.3683 0.2794,-1.0668 0.2794,-1.7018 l -0.0127,-0.3429 q 0,-0.2159 0.2921,-0.3556 0.127,-0.0635 0.2286,-0.0635 0.1778,0 0.1397,0.1778 -0.0381,0.1651 -0.127,0.635 -0.2032,1.1049 -0.254,1.2065 0.7493,-0.6858 1.6129,-2.032 0.0508,-0.0889 0.1524,-0.0889 0.3683,0 0.4064,0.127 0.0254,0.0889 -0.1397,0.5715 -0.1524,0.4699 -0.2286,0.7747 -0.1905,0.7747 -0.1905,1.1176 0,0.3302 0.0508,0.4699 0.0508,0.1397 0.1778,0.127 0.3683,-0.0508 0.7112,-0.4699 0.0508,-0.0508 0.0508,0.0381 z"
         style="font-family:'Lovers Quarrel';-inkscape-font-specification:'Lovers Quarrel'"
         id="path6143" />
      <path
         d="m 71.208921,22.32806 q -0.254,0.6985 -0.254,1.4097 0,0.6985 0.1778,0.8382 0.0635,0.0254 0.1778,0.0254 0.127,0 0.4064,-0.1524 0.2794,-0.1524 0.5207,-0.3556 0.254,-0.2032 0.2667,-0.1778 0.0127,0.0127 0.0127,0.0381 0,0.127 -0.2921,0.3937 -0.2921,0.2667 -0.6731,0.4445 -0.3683,0.1651 -0.5461,0.1651 -0.1651,0 -0.2413,-0.0381 -0.0762,-0.0254 -0.127,-0.1016 -0.0508,-0.0762 -0.0762,-0.1778 -0.0127,-0.1143 -0.0254,-0.2413 -0.0127,-0.1397 0,-0.2794 0.0127,-0.1397 0.0254,-0.2667 0.0127,-0.1397 0.0254,-0.2667 0.0254,-0.127 0.0381,-0.2159 0.0127,-0.0889 0.0381,-0.2032 l -0.1524,0.1778 q -1.27,1.6002 -1.7145,1.6002 -0.0254,0 -0.0381,0 -0.4064,-0.0635 -0.4064,-0.5588 0,-0.1651 0.0381,-0.381 0.2032,-0.889 0.889,-1.6129 0.6985,-0.7366 1.2954,-0.7366 0.2413,0 0.508,0.127 0.1778,-0.3937 0.508,-1.3843 0.3429,-0.9906 0.7112,-1.1811 0.0508,-0.0254 0.0889,-0.0254 0.1397,0 0.1016,0.3175 0,0.0381 -0.1905,0.4064 -0.6223,1.2319 -0.8001,1.6764 -0.1651,0.4318 -0.1905,0.4826 0.1397,0.3048 -0.0254,0.2794 z m -2.3368,1.6764 q -0.127,0.3175 -0.127,0.4953 0,0.1778 0.1143,0.1778 0.3175,0 1.1811,-1.1684 0.4318,-0.5842 0.6858,-1.0033 0.2667,-0.4318 0.2667,-0.508 0,-0.0762 -0.2667,-0.0762 -0.2667,0 -0.9144,0.6604 -0.635,0.6604 -0.9398,1.4224 z"
         style="font-family:'Lovers Quarrel';-inkscape-font-specification:'Lovers Quarrel'"
         id="path6145" />
      <path
         d="m 82.66432,24.48706 q -0.127,-0.2794 -0.127,-0.8001 0,-0.5334 0.0762,-1.2192 -0.889,0.0635 -2.0447,0.0635 -0.5969,0.9144 -1.6129,1.6764 -1.0033,0.7493 -2.0193,1.0795 -0.5334,0.1778 -0.8382,0.1778 -0.3048,0 -0.4445,-0.0127 -0.5461,-0.0635 -0.889,-0.3937 -0.330199,-0.3302 -0.330199,-0.8128 0,-0.5461 0.355599,-0.9271 0.3683,-0.3937 0.9144,-0.5842 1.0414,-0.3429 3.8735,-0.4445 l 0.2667,-0.5334 q -0.3048,0.0381 -0.6096,0.0381 -0.9017,-0.0381 -1.5494,-0.5842 -0.9779,-0.8382 -0.9779,-2.0574 0,-1.1811 0.7874,-1.7018 0.4572,-0.3048 0.8128,-0.3048 0.3683,0 0.762,0.1397 0.3937,0.1397 0.7493,0.6223 l 0.0762,0.1143 q 0.1905,-0.1016 0.4064,-0.1016 0.2286,0 0.4699,0.1778 0.4318,0.3175 0.5334,1.0795 0.0381,0.2667 0.0381,0.7366 0,0.4699 -0.2159,1.2192 0.6985,-0.4953 1.0287,-1.2065 0.0254,-0.0635 0.0635,-0.0254 0.0508,0.0381 0.0254,0.0762 -0.381,0.8128 -1.1557,1.3081 -0.1397,0.4318 -0.3937,0.9779 1.3843,-0.0254 1.9558,-0.0508 0.2159,-1.1938 0.9271,-2.7051 0.3429,-0.7493 0.7874,-1.2192 0.4445,-0.4826 0.7747,-0.4826 0.3429,0 0.3429,0.1016 0,0.0508 -0.1143,0.0381 -0.1016,-0.0127 -0.127,-0.0127 -0.4445,0 -0.9398,0.8382 -0.4826,0.8255 -0.7874,1.8034 -0.3048,0.9652 -0.4064,1.6129 0.5842,-0.0635 0.7366,-0.1651 0.1651,-0.1016 0.1524,-0.0127 -0.0127,0.254 -0.9271,0.4064 -0.0762,0.5588 -0.0762,0.9779 0,1.0033 0.4064,1.2573 0.1016,0.0762 0.2794,0.0762 0.1778,0 0.5588,-0.2032 0.3937,-0.2159 0.635,-0.6223 0.1651,-0.254 0.1651,-0.1016 0,0.3937 -0.8382,0.9144 -0.4699,0.3048 -0.8001,0.3048 -0.4699,0 -0.7366,-0.5334 z m -2.7813,-2.8448 q 0.3683,-0.9017 0.3683,-1.7272 0,-0.8382 -0.381,-1.5875 -0.508,0.5969 -0.508,2.2987 0,0.0889 -0.0508,0.0889 -0.0762,-0.0127 -0.1016,-0.1143 -0.0635,-0.4318 -0.0635,-0.8001 0,-1.1684 0.5969,-1.6764 l -0.0889,-0.1143 q -0.5588,-0.7366 -1.3081,-0.7366 -0.381,0 -0.8382,0.2921 -0.6223,0.4191 -0.6223,1.4986 0,1.2192 0.9398,2.0574 0.5969,0.5334 1.4224,0.5715 0.3683,0 0.635,-0.0508 z m 0.2794,0.8636 q -0.127,-0.0127 -0.2667,-0.0127 -0.1397,0 -0.3048,0.0127 -0.6985,1.1176 -1.7526,1.7653 -0.8509,0.5207 -1.7272,0.5207 -0.4318,0 -0.4572,-0.0381 -0.0254,-0.0889 0.0508,-0.0889 0.2032,0.0254 0.4191,0.0254 0.8382,0 1.6383,-0.4826 1.0033,-0.6223 1.6764,-1.7018 -0.9525,0.0381 -2.0701,0.2032 -1.1049,0.1651 -1.7272,0.3683 -1.054099,0.3429 -1.054099,1.0541 0,0.4064 0.380999,0.6731 0.381,0.254 0.7366,0.2921 0.3556,0.0508 0.5461,0.0508 2.0447,0 3.9116,-2.6416 z m -0.1524,-4.3053 q 0.4318,0.7366 0.4318,1.6002 0,0.8509 -0.3937,1.8161 0.3556,-0.0889 0.5334,-0.1778 0.3302,-1.016 0.3302,-1.8923 0,-0.9398 -0.3429,-1.2827 -0.1524,-0.1524 -0.2921,-0.1524 -0.1397,0 -0.2667,0.0889 z m 0.5334,3.3655 q -0.3556,0.127 -0.5461,0.1651 -0.1143,0.2794 -0.2794,0.5588 0.1905,-0.0127 0.5461,-0.0127 0.1651,-0.3556 0.2794,-0.7112 z"
         style="font-family:'Lovers Quarrel';-inkscape-font-specification:'Lovers Quarrel'"
         id="path6147" />
      <path
         d="m 86.233022,23.09006 q -0.3683,0.4953 -0.5207,0.8636 -0.1524,0.3683 -0.1524,0.5461 0,0.1778 0.1143,0.1778 0.3429,0 1.3843,-1.524 0.4064,-0.5207 0.4064,0.0127 -0.0254,0.3302 -0.0254,0.5588 0,0.9652 0.4064,0.9652 0.4318,0 1.0541,-0.6985 0.0381,-0.0381 0.0889,0.0508 -0.0381,0.0889 -0.2667,0.3175 -0.2159,0.2159 -0.5461,0.3937 -0.3302,0.1778 -0.508,0.1778 -0.1651,0 -0.2667,-0.0381 -0.4699,-0.1651 -0.4699,-1.2954 -0.508,0.8001 -0.7366,1.016 -0.3556,0.3302 -0.5842,0.3302 -0.0127,0 -0.0381,0 -0.4191,-0.0635 -0.4191,-0.5588 0,-0.508 0.3175,-1.1176 0.3302,-0.6223 0.8636,-1.1176 0.5334,-0.4953 1.0668,-0.4953 0.254,0 0.4953,0.127 0.2159,0.127 0.2159,0.4064 0,0.2667 -0.2413,0.3048 0.0889,-0.1524 0.0889,-0.2794 0,-0.1397 -0.127,-0.2032 -0.127,-0.0635 -0.2286,-0.0635 -0.5461,0 -1.3716,1.143 z"
         style="font-family:'Lovers Quarrel';-inkscape-font-specification:'Lovers Quarrel'"
         id="path6149" />
      <path
         d="m 91.732112,24.62676 q 0,0.2921 -0.4953,0.5207 -0.1778,0.0762 -0.3556,0.0762 -0.4064,-0.0381 -0.5334,-0.2921 -0.1143,-0.2413 -0.1143,-0.4191 0,-0.1778 0.0254,-0.4064 0.0254,-0.2413 0.0889,-0.5715 0.0762,-0.3429 0.1778,-0.6731 0.1143,-0.3429 0.1143,-0.3556 -0.1143,0.1524 -0.508,0.6096 -1.016,1.1303 -1.1176,1.397 -0.0889,0.2667 -0.3683,0.3556 -0.1524,0.0508 -0.1524,-0.0635 0,-0.0254 0.0889,-0.3683 0.2794,-1.0668 0.2794,-1.7018 l -0.0127,-0.3429 q 0,-0.2159 0.2921,-0.3556 0.127,-0.0635 0.2286,-0.0635 0.1778,0 0.1397,0.1778 -0.0381,0.1651 -0.127,0.635 -0.2032,1.1049 -0.254,1.2065 0.7493,-0.6858 1.6129,-2.032 0.0508,-0.0889 0.1524,-0.0889 0.3683,0 0.4064,0.127 0.0254,0.0889 -0.1397,0.5715 -0.1524,0.4699 -0.2286,0.7747 -0.1905,0.7747 -0.1905,1.1176 0,0.3302 0.0508,0.4699 0.0508,0.1397 0.1778,0.127 0.3683,-0.0508 0.7112,-0.4699 0.0508,-0.0508 0.0508,0.0381 z"
         style="font-family:'Lovers Quarrel';-inkscape-font-specification:'Lovers Quarrel'"
         id="path6151" />
      <path
         d="m 94.640409,22.32806 q -0.254,0.6985 -0.254,1.4097 0,0.6985 0.1778,0.8382 0.0635,0.0254 0.1778,0.0254 0.127,0 0.4064,-0.1524 0.2794,-0.1524 0.5207,-0.3556 0.254,-0.2032 0.2667,-0.1778 0.0127,0.0127 0.0127,0.0381 0,0.127 -0.2921,0.3937 -0.2921,0.2667 -0.6731,0.4445 -0.3683,0.1651 -0.5461,0.1651 -0.1651,0 -0.2413,-0.0381 -0.0762,-0.0254 -0.127,-0.1016 -0.0508,-0.0762 -0.0762,-0.1778 -0.0127,-0.1143 -0.0254,-0.2413 -0.0127,-0.1397 0,-0.2794 0.0127,-0.1397 0.0254,-0.2667 0.0127,-0.1397 0.0254,-0.2667 0.0254,-0.127 0.0381,-0.2159 0.0127,-0.0889 0.0381,-0.2032 l -0.1524,0.1778 q -1.27,1.6002 -1.7145,1.6002 -0.0254,0 -0.0381,0 -0.4064,-0.0635 -0.4064,-0.5588 0,-0.1651 0.0381,-0.381 0.2032,-0.889 0.889,-1.6129 0.6985,-0.7366 1.2954,-0.7366 0.2413,0 0.508,0.127 0.1778,-0.3937 0.508,-1.3843 0.3429,-0.9906 0.7112,-1.1811 0.0508,-0.0254 0.0889,-0.0254 0.1397,0 0.1016,0.3175 0,0.0381 -0.1905,0.4064 -0.6223,1.2319 -0.8001,1.6764 -0.1651,0.4318 -0.1905,0.4826 0.1397,0.3048 -0.0254,0.2794 z m -2.3368,1.6764 q -0.127,0.3175 -0.127,0.4953 0,0.1778 0.1143,0.1778 0.3175,0 1.1811,-1.1684 0.4318,-0.5842 0.6858,-1.0033 0.2667,-0.4318 0.2667,-0.508 0,-0.0762 -0.2667,-0.0762 -0.2667,0 -0.9144,0.6604 -0.635,0.6604 -0.9398,1.4224 z"
         style="font-family:'Lovers Quarrel';-inkscape-font-specification:'Lovers Quarrel'"
         id="path6153" />
      <path
         d="m 98.196409,21.68036 q 0.3937,0 0.3937,0.4572 0,0.2667 -0.1143,0.7874 -0.1143,0.5207 -0.4572,1.0668 -0.3429,0.5334 -0.9906,0.8255 -0.3937,0.1651 -0.6604,0.1651 -0.7747,0 -0.7747,-0.5461 0,-0.2413 0.1905,-0.4191 0.0889,0.8255 0.6223,0.8255 0.0381,0 0.0762,0 0.3175,-0.0508 0.6731,-0.3937 0.3683,-0.3556 0.635,-0.9144 0.2667,-0.5715 0.2667,-1.0795 0,-0.4318 -0.1524,-0.3556 -0.5842,0.2921 -1.0033,0.9525 -0.4191,0.6477 -0.4318,1.2954 0,0.0762 -0.0762,0.0762 -0.0762,0 -0.2032,-0.127 -0.127,-0.1397 -0.1524,-0.1524 0,-0.5969 0.3048,-1.8669 0.3048,-1.2827 0.8382,-2.3114 0.5461,-1.0414 1.2192,-1.4605 0.0635,-0.0381 0.3048,-0.1016 0.2413,-0.0635 0.3048,-0.0635 0.0635,0 0.0762,0.0127 0.3556,0.0889 0.5334,0.3683 0.0635,0.0889 0.0635,0.127 0,0.0381 -0.0508,0.0381 -0.0508,0 -0.0889,-0.0381 -0.2794,-0.2286 -0.6604,-0.2286 -0.0127,0 -0.0381,0 -0.5969,0.0127 -1.4224,1.9431 -0.8128,1.9304 -0.8763,2.7559 0.1778,-0.3048 0.6731,-0.8509 0.4953,-0.5461 0.635,-0.6604 0.1524,-0.127 0.3429,-0.127 z"
         style="font-family:'Lovers Quarrel';-inkscape-font-specification:'Lovers Quarrel'"
         id="path6155" />
      <path
         d="m 100.03792,23.09006 q -0.368304,0.4953 -0.520704,0.8636 -0.1524,0.3683 -0.1524,0.5461 0,0.1778 0.1143,0.1778 0.3429,0 1.384304,-1.524 0.4064,-0.5207 0.4064,0.0127 -0.0254,0.3302 -0.0254,0.5588 0,0.9652 0.4064,0.9652 0.4318,0 1.0541,-0.6985 0.0381,-0.0381 0.0889,0.0508 -0.0381,0.0889 -0.2667,0.3175 -0.2159,0.2159 -0.5461,0.3937 -0.3302,0.1778 -0.508,0.1778 -0.1651,0 -0.2667,-0.0381 -0.4699,-0.1651 -0.4699,-1.2954 -0.508,0.8001 -0.736604,1.016 -0.3556,0.3302 -0.5842,0.3302 -0.0127,0 -0.0381,0 -0.4191,-0.0635 -0.4191,-0.5588 0,-0.508 0.3175,-1.1176 0.3302,-0.6223 0.863604,-1.1176 0.5334,-0.4953 1.0668,-0.4953 0.254,0 0.4953,0.127 0.2159,0.127 0.2159,0.4064 0,0.2667 -0.2413,0.3048 0.0889,-0.1524 0.0889,-0.2794 0,-0.1397 -0.127,-0.2032 -0.127,-0.0635 -0.2286,-0.0635 -0.5461,0 -1.3716,1.143 z"
         style="font-family:'Lovers Quarrel';-inkscape-font-specification:'Lovers Quarrel'"
         id="path6157" />
      <path
         d="m 103.13671,22.59476 q -0.2921,1.0414 -0.2921,1.4986 0,0.4572 0.1143,0.5461 0.127,0.0889 0.3048,0.0889 0.1778,0 0.5969,-0.1905 0.4191,-0.1905 0.6477,-0.4826 0.2286,-0.2921 0.2159,-0.1397 -0.0127,0.127 -0.0762,0.2286 -0.2286,0.2921 -0.7493,0.5588 -0.5207,0.254 -0.8255,0.254 -0.0762,0 -0.1397,-0.0127 -0.4953,-0.1143 -0.4953,-0.9017 0,-0.3683 0.1143,-0.9017 -0.127,0.0254 -0.127,-0.0635 0,-0.1143 0.2286,-0.3556 0.762,-3.175 2.0066,-4.2164 0.2794,-0.2286 0.508,-0.2286 0.4953,0 0.4953,0.4572 -0.0254,1.016 -0.9398,2.1463 -0.4699,0.5715 -0.762,0.8763 -0.2794,0.3048 -0.8255,0.8382 z m 2.3368,-3.81 q 0,-0.3175 -0.1651,-0.3175 -0.5207,0 -1.397,1.9304 -0.508,1.1557 -0.7366,1.9177 0.6985,-0.6604 1.4986,-1.7526 0.8001,-1.0922 0.8001,-1.778 z"
         style="font-family:'Lovers Quarrel';-inkscape-font-specification:'Lovers Quarrel'"
         id="path6159" />
      <path
         d="m 105.56241,23.09006 q -0.3683,0.4953 -0.5207,0.8636 -0.1524,0.3683 -0.1524,0.5461 0,0.1778 0.1143,0.1778 0.3429,0 1.3843,-1.524 0.4064,-0.5207 0.4064,0.0127 -0.0254,0.3302 -0.0254,0.5588 0,0.9652 0.4064,0.9652 0.4318,0 1.0541,-0.6985 0.0381,-0.0381 0.0889,0.0508 -0.0381,0.0889 -0.2667,0.3175 -0.2159,0.2159 -0.5461,0.3937 -0.3302,0.1778 -0.508,0.1778 -0.1651,0 -0.2667,-0.0381 -0.4699,-0.1651 -0.4699,-1.2954 -0.508,0.8001 -0.7366,1.016 -0.3556,0.3302 -0.5842,0.3302 -0.0127,0 -0.0381,0 -0.4191,-0.0635 -0.4191,-0.5588 0,-0.508 0.3175,-1.1176 0.3302,-0.6223 0.8636,-1.1176 0.5334,-0.4953 1.0668,-0.4953 0.254,0 0.4953,0.127 0.2159,0.127 0.2159,0.4064 0,0.2667 -0.2413,0.3048 0.0889,-0.1524 0.0889,-0.2794 0,-0.1397 -0.127,-0.2032 -0.127,-0.0635 -0.2286,-0.0635 -0.5461,0 -1.3716,1.143 z"
         style="font-family:'Lovers Quarrel';-inkscape-font-specification:'Lovers Quarrel'"
         id="path6161" />
      <path
         d="m 108.3818,25.12206 q -0.6096,0 -0.6096,-0.8636 0,-0.2667 0.0762,-0.5842 0.254,-0.9652 0.9271,-1.6891 0.3175,-0.3302 0.5842,-0.3302 0.2794,0 0.508,0.2032 0.0635,0.0508 0.1143,0.2032 0.0635,0.1397 0.0254,0.2286 -0.0381,0.0889 -0.1143,-0.0762 -0.0762,-0.1397 -0.2794,-0.1397 -0.3556,0 -0.7239,0.5842 -0.6731,1.0795 -0.6731,1.7145 0,0.2032 0.0889,0.3556 0.1016,0.1524 0.2286,0.1524 0.7747,0 1.6256,-0.9779 0.0889,-0.0889 0.0889,-0.0127 0,0.0762 -0.1524,0.254 -0.1397,0.1778 -0.5334,0.4699 -0.6477,0.508 -1.1811,0.508 z"
         style="font-family:'Lovers Quarrel';-inkscape-font-specification:'Lovers Quarrel'"
         id="path6163" />
      <path
         d="m 111.88699,20.99456 q 0.0889,0 0.0889,0.0635 0,0.0508 -0.1524,0.2286 -0.3302,0.4064 -0.6477,0.1524 -0.0508,-0.0381 -0.0127,-0.0762 0.4445,-0.3683 0.7239,-0.3683 z m -0.9779,3.2258 q 0,0.381 0.2286,0.381 0.127,0 0.6223,-0.4064 0.508,-0.4191 0.5461,-0.4572 0.0381,-0.0381 0.0635,-0.0127 0.0254,0.0127 0.0254,0.0381 0,0.0127 -0.0127,0.0381 -0.1905,0.3175 -0.8001,0.762 -0.4064,0.3302 -0.6858,0.3302 -0.4318,0 -0.4318,-0.7366 0,-0.1397 0.0254,-0.3937 0.0254,-0.2667 0.4064,-1.6129 0.0254,-0.1016 0.2794,-0.1016 0.2667,0 0.2667,0.1524 0,0.1397 -0.1016,0.381 -0.0889,0.2286 -0.2159,0.254 -0.0635,0.0127 -0.1397,0.635 -0.0762,0.6223 -0.0762,0.7493 z"
         style="font-family:'Lovers Quarrel';-inkscape-font-specification:'Lovers Quarrel'"
         id="path6165" />
      <path
         d="m 115.39219,24.62676 q 0,0.2921 -0.4953,0.5207 -0.1778,0.0762 -0.3556,0.0762 -0.4064,-0.0381 -0.5334,-0.2921 -0.1143,-0.2413 -0.1143,-0.4191 0,-0.1778 0.0254,-0.4064 0.0254,-0.2413 0.0889,-0.5715 0.0762,-0.3429 0.1778,-0.6731 0.1143,-0.3429 0.1143,-0.3556 -0.1143,0.1524 -0.508,0.6096 -1.016,1.1303 -1.1176,1.397 -0.0889,0.2667 -0.3683,0.3556 -0.1524,0.0508 -0.1524,-0.0635 0,-0.0254 0.0889,-0.3683 0.2794,-1.0668 0.2794,-1.7018 l -0.0127,-0.3429 q 0,-0.2159 0.2921,-0.3556 0.127,-0.0635 0.2286,-0.0635 0.1778,0 0.1397,0.1778 -0.0381,0.1651 -0.127,0.635 -0.2032,1.1049 -0.254,1.2065 0.7493,-0.6858 1.6129,-2.032 0.0508,-0.0889 0.1524,-0.0889 0.3683,0 0.4064,0.127 0.0254,0.0889 -0.1397,0.5715 -0.1524,0.4699 -0.2286,0.7747 -0.1905,0.7747 -0.1905,1.1176 0,0.3302 0.0508,0.4699 0.0508,0.1397 0.1778,0.127 0.3683,-0.0508 0.7112,-0.4699 0.0508,-0.0508 0.0508,0.0381 z"
         style="font-family:'Lovers Quarrel';-inkscape-font-specification:'Lovers Quarrel'"
         id="path6167" />
      <path
         d="m 117.1448,22.26456 q -0.3683,0.3175 -0.7366,0.8255 -0.3556,0.4953 -0.508,0.8763 -0.1524,0.3683 -0.1524,0.5461 0,0.1651 0.1143,0.1651 0.3429,0 1.3843,-1.524 0.4064,-0.5207 0.4064,0.0127 -0.0127,0.0889 -0.0127,0.2286 0,0.4826 0.0254,0.8636 0.3429,-0.2286 0.6477,-0.508 0.3175,-0.2794 0.3175,-0.1905 0,0.0889 -0.1651,0.2667 -0.5461,0.5461 -0.7874,0.6985 0.0508,0.3937 0.0508,0.9779 0,0.5969 -0.1905,1.3462 -0.2794,1.143 -1.0414,1.9685 -0.5842,0.6223 -1.3335,0.9271 -0.4953,0.2286 -1.0668,0.2286 -0.9652,0 -1.524,-0.5588 -0.381,-0.4191 -0.381,-0.889 0,-0.9779 1.7272,-2.1082 0.762,-0.4826 1.8415,-1.0668 1.0795,-0.5842 1.5748,-0.889 -0.1651,-0.8128 -0.2159,-0.8636 -0.508,0.8001 -0.7366,1.016 -0.381,0.3556 -0.6223,0.3302 -0.4191,-0.0635 -0.4191,-0.5588 0,-0.508 0.3175,-1.1176 0.3302,-0.6223 0.8636,-1.1176 0.5334,-0.4953 1.0668,-0.4953 0.254,0 0.4953,0.127 0.2159,0.127 0.2159,0.4064 0,0.2667 -0.2413,0.3048 0.0889,-0.1524 0.0889,-0.2794 0,-0.1397 -0.127,-0.2032 -0.1143,-0.0635 -0.2286,-0.0635 -0.2667,0 -0.6477,0.3175 z m -4.2164,5.4991 q -0.508,0.5334 -0.508,0.889 0,0.3556 0.254,0.6096 0.3556,0.3556 1.143,0.3556 0.5969,0 1.27,-0.2794 0.8255,-0.3175 1.4351,-0.9652 0.9398,-1.0287 0.9398,-2.6162 0,-0.508 -0.0889,-1.0668 -3.6068,2.1717 -4.445,3.0734 z"
         style="font-family:'Lovers Quarrel';-inkscape-font-specification:'Lovers Quarrel'"
         id="path6169" />
      <path
         d="m 1.7907,38.57282 q -0.1524,-0.1905 -0.1524,-0.4318 0,-0.2413 0.1143,-0.4699 0.127,-0.2413 0.3556,-0.4826 0.2413,-0.254 0.6223,-0.4699 0.3937,-0.2286 0.8762999,-0.3937 1.0033,-0.3683 2.5146,-0.3683 0.3302,-0.3429 0.6985,-0.4191 0.0127,0 0.0127,0 0.0762,0 0.0762,0.0508 -0.0254,0.0889 -0.1778,0.127 -0.1397,0.0381 -0.3429,0.254 1.2192,0.0508 2.0066,0.4445 0.8001,0.3937 0.8001,1.0541 0,0.6096 -0.6731,1.1557 -0.6604,0.5461 -1.6891,0.8763 -0.1143,1.0033 -1.0541,1.4224 -0.0635,0.0254 -0.0762,-0.0254 -0.0127,-0.0508 0.0254,-0.0635 0.4191,-0.1905 0.6731,-0.5334 0.2667,-0.3556 0.3302,-0.762 -0.7747,0.2286 -1.7272,0.3048 l -0.1143,0.3429 q -1.143,3.1242 -3.5305999,3.1242 -0.64770001,0 -1.00330001,-0.3302 Q 0,42.66222 0,42.20502 q 0,-0.4699 0.33019999,-1.0541 0,-0.1905 0.0381,-0.381 0.2032,-1.2319 1.42240001,-2.1971 z m 2.3240999,0.2667 q -0.6604,0.1524 -1.2572999,0.1524 -0.5969,0 -0.9525,-0.3048 -1.16840001,0.9144 -1.35890001,2.1082 l -0.0127,0.0635 Q 1.4605,39.81742 3.1496,39.63962 q 0.0762,-0.0127 0.0762,0.0635 -0.0127,0.0762 -0.0889,0.1016 -0.9144,0.1397 -1.6002,0.5842 -0.67310002,0.4445 -1.02870001,1.016 0.0381,0.508 0.2794,0.7874 Q 1.0668,42.52252 1.524,42.52252 q 0.4572,0 0.8763,-0.3175 0.4318,-0.3302 0.762,-0.9525 0.5460999,-1.0414 0.8635999,-2.1336 z m 4.6101,-1.4097 q 0,-0.5207 -0.6858,-0.9017 -0.6858,-0.3937 -1.7399,-0.4318 -0.3048,0.4318 -0.6604,1.651 0.2286,0.1016 0.3175,0.1524 0.4572,-0.2159 0.889,-0.5334 0.1524,-0.1143 0.1524,-0.0127 0,0.1524 -0.8636,0.6477 0.6731,0.4699 0.6985,1.27 0.9017,-0.3429 1.3716,-0.8128 0.5207,-0.508 0.5207,-1.0287 z m -5.4229,-0.6858 Q 2.8067,37.02342 2.413,37.35362 q -0.3937,0.3175 -0.4572,0.5334 -0.0635,0.2032 -0.0635,0.3302 0,0.127 0.0508,0.2413 1.1557,-0.8382 2.6542999,-0.8636 0.4572,-1.0033 0.762,-1.2319 0.0635,-0.0381 0.0762,0.0127 0.0127,0.0508 -0.0127,0.0762 -0.3048,0.2286 -0.6858,1.143 0.0762,0 0.1778,0.0127 0.1143,0 0.2667,0.0381 0.4572,-1.1176 0.8255,-1.5621 -0.7493,0.0127 -1.4732,0.2032 -0.7239,0.1778 -1.2319,0.4572 z M 1.4859,42.62412 q -0.4064,0 -0.71120001,-0.2667 -0.2921,-0.2667 -0.3937,-0.6858 -0.1524,0.3048 -0.1524,0.5588 0,0.254 0.127,0.4572 0.254,0.4445 0.91440001,0.4445 0.6731,0 1.1684,-0.2921 0.4953,-0.2794 0.8635999,-0.7874 0.5969,-0.8509 1.0287,-2.032 l 0.4953,-1.397 q -0.1143,0.0381 -0.508,0.1651 l -0.1016,0.3556 q -0.2286,0.8382 -0.5842,1.5367 -0.3556,0.6858 -0.6603999,1.0795 -0.2921,0.3937 -0.6858,0.635 -0.381,0.2286 -0.8001,0.2286 z m 5.2577999,-3.3147 q -0.0254,-0.8001 -0.7112,-1.2446 -0.381,0.2032 -0.5715,0.2921 -0.3302,1.143 -0.3937,1.3208 0.127,-0.0254 0.3429,-0.0508 0.5842,-0.0381 1.3335,-0.3175 z M 2.0574,38.56012 q 0.2286,0.1778 0.5715,0.1778 0.3429,0 0.6730999,-0.0381 0.3302,-0.0381 0.9144,-0.1651 0.1143,-0.3429 0.3302,-0.8382 Q 3.175,37.73462 2.0574,38.56012 Z m 2.6415999,-0.8636 q -0.2032,0.5334 -0.2794,0.7874 l 0.508,-0.1524 q 0.0635,-0.1905 0.2159,-0.5969 -0.1778,-0.0254 -0.2667,-0.0254 -0.0762,-0.0127 -0.1778,-0.0127 z m 1.1557,0.254 -0.2413,-0.1016 -0.0762,0.254 z"
         style="font-family:'Lovers Quarrel';-inkscape-font-specification:'Lovers Quarrel'"
         id="path6171" />
      <path
         d="m 10.033011,39.56342 q 0.2413,0.1905 0.2413,0.4826 0,0.2921 -0.2793997,0.6731 h 0.2539997 q 0.1905,0 -0.0127,0.0762 -0.2032,0.0635 -0.3809997,0.1016 -0.127,0.1524 -0.2921,0.2794 -0.1651,0.1143 -0.1524,0.0127 l 0.0635,-0.1143 0.127,-0.1397 q -1.0287,0.0762 -1.0922,0.0889 -0.1397,0.3429 -0.1397,0.7366 0,0.3937 0.1905,0.5588 0.1905,0.1524 0.3302,0.1524 0.8763,0 1.7779997,-0.9525 0.1143,-0.1143 0.1143,0.0127 0,0.0381 -0.0762,0.127 -0.254,0.3048 -0.7111997,0.5842 -0.7366,0.4699 -1.1938,0.4699 -0.4445,0 -0.7112,-0.2413 -0.2667,-0.254 -0.2667,-0.762 0,-0.1778 0.0508,-0.4699 0.0635,-0.2921 0.2921,-0.7493 0.2413,-0.4699 0.5715,-0.7874 0.3429,-0.3302 0.6604,-0.3302 0.3302,0 0.6349997,0.1905 z m -0.3047997,1.1684 q 0.2159,-0.4445 0.2159,-0.7112 0,-0.2667 -0.2286,-0.2667 -0.2286,0 -0.5588,0.3175 -0.3302,0.3175 -0.5207,0.6858 0.9398,-0.0254 1.0922,-0.0254 z"
         style="font-family:'Lovers Quarrel';-inkscape-font-specification:'Lovers Quarrel'"
         id="path6173" />
      <path
         d="m 13.106417,40.10952 q -0.1651,-0.2159 -0.3429,-0.2159 -0.508,0 -1.2319,1.1176 -0.3683,0.5588 -0.635,1.4605 -0.0127,0.1016 -0.1143,0.1016 -0.1143,0 -0.1143,-0.1016 l 0.1905,-1.3462 q 0.127,-1.016 0.1397,-1.27 0.0127,-0.2667 0.3429,-0.3683 0.1016,-0.0254 0.2032,-0.0254 0.1143,0 0.127,0.1143 0,0.0381 -0.0127,0.0889 -0.0127,0.0381 -0.1905,0.6731 -0.1651,0.6223 -0.2159,0.7366 0.3048,-0.5334 0.7747,-1.0287 0.4699,-0.508 0.7239,-0.508 0.0127,0 0.0127,0 0.3429,0 0.4445,0.4191 0.0254,0.1016 0.0254,0.1778 0,0.0635 -0.0381,0.0635 -0.0381,0.0127 -0.0889,-0.0889 z"
         style="font-family:'Lovers Quarrel';-inkscape-font-specification:'Lovers Quarrel'"
         id="path6175" />
      <path
         d="m 15.328917,39.57612 q 0.1016,0 0.1143,0.0508 0.0127,0.0381 -0.2159,0.0889 -0.7493,0.1524 -1.1049,0.1524 -0.3429,0.8382 -0.5207,2.1082 -0.1651,1.2573 -0.1651,1.8542 0,0.889 0.2794,1.1684 0.0635,0.0635 0.1651,0.1143 0.1143,0.0635 0.0635,0.0889 -0.0635,0.0254 -0.2032,0.0254 -0.1397,0 -0.4318,-0.1905 -0.2921,-0.1905 -0.3429,-0.635 -0.0254,-0.1905 -0.0254,-0.6604 0,-0.4699 0.254,-1.7272 0.2667,-1.27 0.5461,-2.0955 -0.0635,0.0127 -0.127,0.0127 -0.2413,0 -0.3048,-0.1397 -0.0508,-0.1397 0.0127,-0.1524 0.0762,-0.0127 0.254,-0.0254 0.1905,-0.0127 0.2413,-0.0254 0.635,-1.6383 1.0414,-2.2987 0.7366,-1.2319 1.4986,-1.2319 0.1397,0 0.2794,0.0381 0.2921,0.1016 0.2921,0.3683 0,0.2667 -0.1651,0.3429 0.0635,-0.2159 -0.0254,-0.3302 -0.0889,-0.127 -0.2794,-0.127 -0.4064,0.0127 -0.9144,0.6858 -0.8636,1.1557 -1.3335,2.54 z"
         style="font-family:'Lovers Quarrel';-inkscape-font-specification:'Lovers Quarrel'"
         id="path6177" />
      <path
         d="m 17.767305,40.26192 0.5969,-0.0635 q 0.0381,0 0.0381,0.0254 0,0.0254 -0.0381,0.0635 l -0.1016,0.0889 q -0.3048,0.1397 -0.6223,0.1397 -0.3175,0 -0.4191,-0.0508 0,0.0254 0,0.1397 0,0.1143 -0.127,0.4953 -0.1143,0.381 -0.3556,0.8001 -0.2413,0.4191 -0.5207,0.6096 -0.2794,0.1905 -0.4191,0.1905 -0.127,0 -0.2794,-0.0381 -0.1397,-0.0381 -0.3175,-0.2667 -0.2032,-0.2286 -0.2032,-0.635 0,-0.4191 0.127,-0.8509 0.4699,-1.4224 1.1557,-1.4859 0.0889,-0.1016 0.2159,-0.1016 0.1397,0 0.3556,0.127 0.381,0.2413 0.4191,0.5969 0.1778,0.2159 0.4953,0.2159 z m -1.3462,-0.4064 q -0.2159,0.0508 -0.4699,0.4953 -0.254,0.4445 -0.381,0.889 -0.1143,0.4445 -0.1143,0.762 0,0.3048 0.2286,0.4191 0.0635,0.0254 0.1397,0.0254 0.3048,0 0.6858,-0.5969 0.2159,-0.3429 0.3429,-0.762 0.127,-0.4191 0.127,-0.5334 0,-0.1143 -0.0127,-0.1524 -0.2413,-0.0381 -0.381,-0.1778 -0.1397,-0.1397 -0.1524,-0.254 z"
         style="font-family:'Lovers Quarrel';-inkscape-font-specification:'Lovers Quarrel'"
         id="path6179" />
      <path
         d="m 20.256512,40.10952 q -0.1651,-0.2159 -0.3429,-0.2159 -0.508,0 -1.2319,1.1176 -0.3683,0.5588 -0.635,1.4605 -0.0127,0.1016 -0.1143,0.1016 -0.1143,0 -0.1143,-0.1016 l 0.1905,-1.3462 q 0.127,-1.016 0.1397,-1.27 0.0127,-0.2667 0.3429,-0.3683 0.1016,-0.0254 0.2032,-0.0254 0.1143,0 0.127,0.1143 0,0.0381 -0.0127,0.0889 -0.0127,0.0381 -0.1905,0.6731 -0.1651,0.6223 -0.2159,0.7366 0.3048,-0.5334 0.7747,-1.0287 0.4699,-0.508 0.7239,-0.508 0.0127,0 0.0127,0 0.3429,0 0.4445,0.4191 0.0254,0.1016 0.0254,0.1778 0,0.0635 -0.0381,0.0635 -0.0381,0.0127 -0.0889,-0.0889 z"
         style="font-family:'Lovers Quarrel';-inkscape-font-specification:'Lovers Quarrel'"
         id="path6181" />
      <path
         d="m 24.180813,42.59872 q -0.723899,0 -0.723899,-1.0795 0,-0.2286 0.127,-0.9652 -0.762,0.8128 -1.1176,1.2954 -0.0127,0.4318 -0.4826,0.6985 -0.2159,0.127 -0.2159,0.0508 0.1143,-0.3429 0.2413,-1.1938 0.127,-0.8636 0.127,-1.2319 -0.0254,0.0254 -0.4826,0.6223 -0.9906,1.27 -1.0922,1.5748 -0.1016,0.2921 -0.381,0.3683 -0.0508,0.0127 -0.0762,0.0127 -0.0762,0 -0.0762,-0.0762 0,-0.0254 0.0635,-0.3175 0.0762,-0.3048 0.127,-0.5207 0.1778,-0.7493 0.1905,-1.0287 0.0127,-0.2921 0.0127,-0.4318 0,-0.1397 -0.0254,-0.381 -0.0127,-0.2413 0.3302,-0.3937 0.1397,-0.0635 0.2286,-0.0635 0.1778,0 0.0889,0.2159 -0.0762,0.2159 -0.2159,1.143 -0.1397,0.9271 -0.1651,0.9652 0.4953,-0.4445 1.2446,-1.7018 0.2667,-0.4318 0.4572,-0.4318 0.1778,0 0.2159,0.5842 0,0.6985 -0.1016,1.3081 0.1016,-0.127 0.3556,-0.4191 0.4191,-0.4699 0.8382,-1.0414 0.0889,-0.3048 0.330199,-0.4826 0.2413,-0.1778 0.2286,0.1143 0,0.0508 -0.1016,0.6477 -0.1016,0.5969 -0.1397,0.8382 -0.0254,0.2286 -0.0254,0.3302 0,0.4191 0.2286,0.5588 0.0889,0.0762 0.2667,0.0762 0.1778,0 0.4064,-0.1524 0.2286,-0.1524 0.3937,-0.2921 0.1778,-0.1524 0.2794,-0.2667 0.1143,-0.127 0.2032,-0.2413 0.1016,-0.1143 0.1143,-0.127 0.0635,-0.0254 0.0889,0.0762 -0.1524,0.3048 -0.762,0.8382 -0.5969,0.5207 -1.0033,0.5207 z"
         style="font-family:'Lovers Quarrel';-inkscape-font-specification:'Lovers Quarrel'"
         id="path6183" />
      <path
         d="m 26.352517,40.74452 q -0.3683,0.4953 -0.5207,0.8636 -0.1524,0.3683 -0.1524,0.5461 0,0.1778 0.1143,0.1778 0.3429,0 1.3843,-1.524 0.4064,-0.5207 0.4064,0.0127 -0.0254,0.3302 -0.0254,0.5588 0,0.9652 0.4064,0.9652 0.4318,0 1.0541,-0.6985 0.0381,-0.0381 0.0889,0.0508 -0.0381,0.0889 -0.2667,0.3175 -0.2159,0.2159 -0.5461,0.3937 -0.3302,0.1778 -0.508,0.1778 -0.1651,0 -0.2667,-0.0381 -0.4699,-0.1651 -0.4699,-1.2954 -0.508,0.8001 -0.7366,1.016 -0.3556,0.3302 -0.5842,0.3302 -0.0127,0 -0.0381,0 -0.4191,-0.0635 -0.4191,-0.5588 0,-0.508 0.3175,-1.1176 0.3302,-0.6223 0.8636,-1.1176 0.5334,-0.4953 1.0668,-0.4953 0.254,0 0.4953,0.127 0.2159,0.127 0.2159,0.4064 0,0.2667 -0.2413,0.3048 0.0889,-0.1524 0.0889,-0.2794 0,-0.1397 -0.127,-0.2032 -0.127,-0.0635 -0.2286,-0.0635 -0.5461,0 -1.3716,1.143 z"
         style="font-family:'Lovers Quarrel';-inkscape-font-specification:'Lovers Quarrel'"
         id="path6185" />
      <path
         d="m 31.851608,42.28122 q 0,0.2921 -0.4953,0.5207 -0.1778,0.0762 -0.3556,0.0762 -0.4064,-0.0381 -0.5334,-0.2921 -0.1143,-0.2413 -0.1143,-0.4191 0,-0.1778 0.0254,-0.4064 0.0254,-0.2413 0.0889,-0.5715 0.0762,-0.3429 0.1778,-0.6731 0.1143,-0.3429 0.1143,-0.3556 -0.1143,0.1524 -0.508,0.6096 -1.016,1.1303 -1.1176,1.397 -0.0889,0.2667 -0.3683,0.3556 -0.1524,0.0508 -0.1524,-0.0635 0,-0.0254 0.0889,-0.3683 0.2794,-1.0668 0.2794,-1.7018 l -0.0127,-0.3429 q 0,-0.2159 0.2921,-0.3556 0.127,-0.0635 0.2286,-0.0635 0.1778,0 0.1397,0.1778 -0.0381,0.1651 -0.127,0.635 -0.2032,1.1049 -0.254,1.2065 0.7493,-0.6858 1.6129,-2.032 0.0508,-0.0889 0.1524,-0.0889 0.3683,0 0.4064,0.127 0.0254,0.0889 -0.1397,0.5715 -0.1524,0.4699 -0.2286,0.7747 -0.1905,0.7747 -0.1905,1.1176 0,0.3302 0.0508,0.4699 0.0508,0.1397 0.1778,0.127 0.3683,-0.0508 0.7112,-0.4699 0.0508,-0.0508 0.0508,0.0381 z"
         style="font-family:'Lovers Quarrel';-inkscape-font-specification:'Lovers Quarrel'"
         id="path6187" />
      <path
         d="m 32.38501,42.77652 q -0.6096,0 -0.6096,-0.8636 0,-0.2667 0.0762,-0.5842 0.254,-0.9652 0.9271,-1.6891 0.3175,-0.3302 0.5842,-0.3302 0.2794,0 0.508,0.2032 0.0635,0.0508 0.1143,0.2032 0.0635,0.1397 0.0254,0.2286 -0.0381,0.0889 -0.1143,-0.0762 -0.0762,-0.1397 -0.2794,-0.1397 -0.3556,0 -0.7239,0.5842 -0.6731,1.0795 -0.6731,1.7145 0,0.2032 0.0889,0.3556 0.1016,0.1524 0.2286,0.1524 0.7747,0 1.6256,-0.9779 0.0889,-0.0889 0.0889,-0.0127 0,0.0762 -0.1524,0.254 -0.1397,0.1778 -0.5334,0.4699 -0.6477,0.508 -1.1811,0.508 z"
         style="font-family:'Lovers Quarrel';-inkscape-font-specification:'Lovers Quarrel'"
         id="path6189" />
      <path
         d="m 36.550602,39.56342 q 0.2413,0.1905 0.2413,0.4826 0,0.2921 -0.2794,0.6731 h 0.254 q 0.1905,0 -0.0127,0.0762 -0.2032,0.0635 -0.381,0.1016 -0.127,0.1524 -0.2921,0.2794 -0.1651,0.1143 -0.1524,0.0127 l 0.0635,-0.1143 0.127,-0.1397 q -1.0287,0.0762 -1.0922,0.0889 -0.1397,0.3429 -0.1397,0.7366 0,0.3937 0.1905,0.5588 0.1905,0.1524 0.3302,0.1524 0.8763,0 1.778,-0.9525 0.1143,-0.1143 0.1143,0.0127 0,0.0381 -0.0762,0.127 -0.254,0.3048 -0.7112,0.5842 -0.7366,0.4699 -1.1938,0.4699 -0.4445,0 -0.7112,-0.2413 -0.2667,-0.254 -0.2667,-0.762 0,-0.1778 0.0508,-0.4699 0.0635,-0.2921 0.2921,-0.7493 0.2413,-0.4699 0.5715,-0.7874 0.3429,-0.3302 0.6604,-0.3302 0.3302,0 0.635,0.1905 z m -0.3048,1.1684 q 0.2159,-0.4445 0.2159,-0.7112 0,-0.2667 -0.2286,-0.2667 -0.2286,0 -0.5588,0.3175 -0.3302,0.3175 -0.5207,0.6858 0.9398,-0.0254 1.0922,-0.0254 z"
         style="font-family:'Lovers Quarrel';-inkscape-font-specification:'Lovers Quarrel'"
         id="path6191" />
      <path
         d="m 47.790108,35.35972 q 0.4699,0 0.4699,0.5969 0,0.3175 -0.1651,1.7145 -0.1524,1.3843 -0.1905,2.1844 0.635,-0.0381 0.7874,-0.1397 0.1524,-0.1016 0.1524,-0.0254 0.0127,0.0762 -0.2159,0.2159 -0.2159,0.127 -0.7239,0.2032 0,0.2286 0,0.7874 0,1.2319 0.4191,1.6383 0.1524,0.1524 0.254,0.1524 0.1143,0 0.254,-0.0508 0.1524,-0.0381 0.381,-0.2794 0.2286,-0.254 0.3937,-0.635 0.0508,-0.1143 0.0889,-0.0889 0.0508,0.0127 0.0508,0.0508 0,0.0381 -0.0127,0.0889 -0.1651,0.4699 -0.5207,0.7874 -0.7747,0.7112 -1.3843,0.1651 -0.3175,-0.2794 -0.4064,-0.8128 -0.0762,-0.5334 -0.0762,-0.9652 0,-0.4445 0.0127,-0.7747 -0.1905,0.0127 -1.5875,0.0127 -0.6731,0.7366 -1.4478,1.3843 0.0889,0.0127 0.1905,0.0127 0.9144,0 1.6256,-0.9398 0.0508,-0.0635 0.0762,0.0127 v 0.0508 q -0.762,1.0033 -1.7018,1.0033 -0.1651,0 -0.3175,-0.0254 -1.9812,1.5875 -3.3782,1.5875 -0.7493,0 -1.1557,-0.4191 -0.254,-0.2794 -0.254,-0.6858 0,-0.5969 0.4191,-1.016 0.4318,-0.4191 1.016,-0.6096 0.5969,-0.2032 1.5494,-0.3556 -0.3175,-0.7239 -0.3175,-1.4351 0,-1.9304 1.0922,-2.8321 0.5842,-0.4699 1.1938,-0.4699 0.2159,0 0.4445,0.0635 0.8001,0.2032 1.0541,1.0414 0.1016,0.3175 0.1016,0.6858 0,1.2192 -1.016,2.7305 h 0.5715 q 0.254,-0.254 1.0033,-1.2954 0.7493,-1.0541 1.1303,-1.5367 0.127,-0.8255 0.127,-1.0668 0,-0.4445 -0.2286,-0.4445 -0.2667,0 -0.7112,0.5207 -0.2413,0.2794 -0.2921,0.3937 -0.0508,0.1143 -0.127,0.0635 -0.0762,-0.1016 0.2286,-0.4826 0.635,-0.762 1.143,-0.762 z m -3.0099,4.6228 q 0.3048,-0.4445 0.5207,-0.889 0.4826,-0.9906 0.4826,-1.651 0,-0.6604 -0.2413,-1.0922 -0.4064,-0.7366 -1.2446,-0.7366 -0.8255,0 -1.4351,0.8382 -0.5969,0.8382 -0.5969,2.2987 0,0.762 0.3048,1.4097 1.1557,-0.1651 2.2098,-0.1778 z m -5.207,2.032 q 0,0.3556 0.3556,0.6096 0.4445,0.3302 1.1811,0.3302 1.3335,0 2.8067,-1.3335 l -0.2921,-0.1143 q -1.3081,1.143 -2.54,1.143 -0.3683,0 -0.7239,-0.1016 -0.0635,-0.0127 -0.0381,-0.0635 0.0254,-0.0508 0.0635,-0.0381 1.4859,0.3937 3.1115,-1.016 -0.5842,-0.3429 -0.9525,-0.9779 -1.2192,0.2413 -1.8288,0.4318 -1.143,0.3937 -1.143,1.1303 z m 6.4262,-2.1082 q 0.1778,0.0127 0.4953,0.0127 0.3302,0 0.889,-0.0254 0.0381,-0.9906 0.2413,-2.3241 -0.3175,0.5588 -0.6096,0.9525 -0.2794,0.381 -0.5842,0.8001 -0.2921,0.4064 -0.4318,0.5842 z m -1.3589,0.2667 q -0.9398,0.0889 -1.9304,0.254 0.381,0.6223 0.9017,0.9017 0.5461,-0.4953 1.0287,-1.1557 z m 0.7239,-0.0127 q -0.1143,-0.0127 -0.254,-0.0127 -0.1397,0 -0.2921,0.0127 -0.4953,0.7239 -1.0795,1.2446 0.1651,0.0635 0.2921,0.1016 0.2667,-0.254 0.7112,-0.7112 0.4445,-0.4699 0.6223,-0.635 z"
         style="font-family:'Lovers Quarrel';-inkscape-font-specification:'Lovers Quarrel'"
         id="path6193" />
      <path
         d="m 51.727096,40.10952 q -0.1651,-0.2159 -0.3429,-0.2159 -0.508,0 -1.2319,1.1176 -0.368299,0.5588 -0.634999,1.4605 -0.0127,0.1016 -0.1143,0.1016 -0.1143,0 -0.1143,-0.1016 l 0.1905,-1.3462 q 0.127,-1.016 0.1397,-1.27 0.0127,-0.2667 0.3429,-0.3683 0.101599,-0.0254 0.203199,-0.0254 0.1143,0 0.127,0.1143 0,0.0381 -0.0127,0.0889 -0.0127,0.0381 -0.1905,0.6731 -0.165099,0.6223 -0.215899,0.7366 0.304799,-0.5334 0.774699,-1.0287 0.4699,-0.508 0.7239,-0.508 0.0127,0 0.0127,0 0.3429,0 0.4445,0.4191 0.0254,0.1016 0.0254,0.1778 0,0.0635 -0.0381,0.0635 -0.0381,0.0127 -0.0889,-0.0889 z"
         style="font-family:'Lovers Quarrel';-inkscape-font-specification:'Lovers Quarrel'"
         id="path6195" />
      <path
         d="m 53.200298,39.47452 q 0.9271,0 0.9271,0.1143 0,0.0254 -0.3048,0.0635 -0.9779,0.1016 -1.0668,0.127 -0.6223,1.524 -0.6223,2.1717 0,0.2032 0.0762,0.3048 0.0889,0.0889 0.1905,0.0762 0.1143,-0.0127 0.1778,-0.0254 0.0762,-0.0127 0.2159,-0.0762 0.1524,-0.0762 0.2413,-0.1143 0.2159,-0.1016 0.8255,-0.5715 0.2159,-0.1524 0.2286,-0.0635 0,0.1651 -0.6858,0.6477 -0.6731,0.4826 -1.1049,0.4826 -0.0127,0 -0.0254,0 -0.3937,-0.0254 -0.508,-0.2159 -0.0508,-0.1016 -0.0508,-0.3048 0,-0.2032 0.0381,-0.4826 0.0508,-0.2921 0.2032,-0.7366 0.1524,-0.4445 0.2667,-0.762 0.127,-0.3175 0.1143,-0.3175 -0.1397,0 -0.9398,0.1143 -0.0635,0.0127 -0.0635,-0.127 0,-0.1524 0.127,-0.2032 0.1397,-0.0508 0.9652,-0.0889 0.3937,-1.3462 0.5842,-1.7399 0.0381,-0.0889 0.1143,-0.0889 0.0762,0 0.2159,0.1778 0.1397,0.1778 0.1397,0.2667 0,0.0889 -0.0254,0.1397 l -0.6223,1.2446 q 0.1778,-0.0127 0.3683,-0.0127 z"
         style="font-family:'Lovers Quarrel';-inkscape-font-specification:'Lovers Quarrel'"
         id="path6197" />
      <path
         d="m 53.657494,42.90352 q -0.4572,0 -0.4572,-0.2286 0,-0.0762 0.1143,-0.1524 0.1016,-0.0889 0.3048,-0.1016 1.2319,-0.1016 1.3208,-0.127 0.0889,-0.1397 0.0889,-0.3175 0,-0.1905 -0.3429,-0.4826 -0.3429,-0.2921 -0.4953,-0.6096 -0.1524,-0.3175 -0.1524,-0.508 0,-0.1905 0.1016,-0.3556 0.4445,-0.7366 1.0414,-0.7366 0.508,0 0.6604,0.3429 0.0381,0.1016 0,0.1778 -0.0254,0.0762 -0.0635,0.0635 -0.0381,-0.0127 -0.0508,-0.0762 -0.0254,-0.2286 -0.2159,-0.2286 -0.1016,0 -0.2413,0.0635 -0.5207,0.2032 -0.7239,0.7112 -0.0508,0.127 -0.0508,0.2667 0,0.1397 0.0889,0.3429 0.0889,0.2032 0.2921,0.381 0.3556,0.3048 0.3556,0.635 0,0.127 -0.0635,0.254 0.6477,-0.3048 1.0033,-0.5588 l 0.0254,0.0127 q -0.0127,0.1651 -0.635,0.4953 -0.2032,0.1143 -0.3556,0.2032 l -0.1397,0.0889 q -0.127,0.2413 -0.8255,0.3683 -0.3556,0.0762 -0.5842,0.0762 z"
         style="font-family:'Lovers Quarrel';-inkscape-font-specification:'Lovers Quarrel'"
         id="path6199" />
    </g>
  </g>
</svg>
