<?xml version="1.0" encoding="UTF-8" standalone="no"?>
<!-- Created with Inkscape (http://www.inkscape.org/) -->

<svg
   width="40mm"
   height="18.27mm"
   viewBox="0 0 40 18.27"
   version="1.1"
   id="svg5"
   sodipodi:docname="meg_austin2.svg"
   inkscape:version="1.2.2 (b0a8486541, 2022-12-01)"
   xmlns:inkscape="http://www.inkscape.org/namespaces/inkscape"
   xmlns:sodipodi="http://sodipodi.sourceforge.net/DTD/sodipodi-0.dtd"
   xmlns="http://www.w3.org/2000/svg"
   xmlns:svg="http://www.w3.org/2000/svg">
  <sodipodi:namedview
     id="namedview7"
     pagecolor="#ffffff"
     bordercolor="#666666"
     borderopacity="1.0"
     inkscape:showpageshadow="2"
     inkscape:pageopacity="0.0"
     inkscape:pagecheckerboard="0"
     inkscape:deskcolor="#d1d1d1"
     inkscape:document-units="mm"
     showgrid="false"
     inkscape:zoom="1.0555975"
     inkscape:cx="639.44826"
     inkscape:cy="48.313868"
     inkscape:window-width="3440"
     inkscape:window-height="1375"
     inkscape:window-x="1920"
     inkscape:window-y="0"
     inkscape:window-maximized="1"
     inkscape:current-layer="layer1" />
  <defs
     id="defs2" />
  <g
     inkscape:label="Layer 1"
     inkscape:groupmode="layer"
     id="layer1">
    <g
       aria-label="M"
       id="text186"
       style="font-size:25.4px;line-height:1.25;stroke-width:0.264583">
      <path
         d="M 1.0668,3.3019999 Q 1.6764,1.7779999 3.1496,0.88899989 4.6481999,-9.5367433e-8 6.0451999,-9.5367433e-8 q 1.397,0 2.413,0.609599995367433 0.1778,-0.0254 0.5334,-0.0254 2.5908001,0 3.8100001,1.5494 0.3302,-0.2286 0.5842,-0.2794 0.254,-0.0508 0.2794,0.0508 -0.0508,0.1778 -0.254,0.2286 -0.2032,0.0508 -0.4572,0.2286 0.889,1.3207999 0.889,3.5305999 0,2.1844 -1.0922,5.4102002 0.2794,0.0508 0.7874,0.2032 l 0.3302,-0.5842 q 2.4384,-4.0132002 3.7084,-5.7150002 3.2512,-4.26719991 5.6134,-4.26719991 0.6096,0 0.9652,0.48260001 0.381,0.4572 0.381,1.0414 0,0.4064 -0.1016,0.4318 -0.0762,0.0254 -0.1016,-0.1016 l -0.0254,-0.0762 q 0,-1.1176 -1.1684,-1.1176 -0.4318,0 -1.2192,0.3556 -0.762,0.3302 -1.9304,1.4478 -1.143,1.0921999 -2.2098,2.5399999 -1.778,2.3876 -2.794,3.9878 -0.9906,1.5748002 -1.0922,1.7272002 2.1844,0.889 2.1844,2.5146 0,0.4826 -0.1778,1.016 -0.0254,0.0508 -0.1016,0.0508 -0.0508,0.0254 -0.1016,-0.0254 -0.0254,-0.0508 0.0762,-0.3302 0.1016,-0.2794 0.1016,-0.7874 0,-0.508 -0.3048,-0.9906 -0.5334,-0.8382 -1.778,-1.2954 -2.0574,3.0734 -2.6162,3.0734 -0.1524,0 -0.1016,-0.1524 0.635,-1.6256 1.0668,-3.3274 -0.254,-0.0508 -0.762,-0.1016 -0.6096,2.1336 -1.8542001,3.556 -1.2446,1.4478 -2.4638,1.9812 -1.1938,0.5588 -2.1082,0.5588 -1.8287999,0 -2.2859999,-1.1938 -0.1778,0.0254 -0.5588,0.0254 -0.381,0 -0.8128,-0.0762 Q 0.8636,16.1036 0.4318,15.7988 0,15.5194 0,15.0876 q 0,-0.4318 0.3048,-0.508 0.1524,-0.0254 0.1524,0.0508 0.0254,0.0762 -0.0254,0.127 -0.22859999,0.3048 0.0762,0.6096 0.5842,0.5334 1.6256,0.5334 0.2286,0 0.4318,-0.0254 Q 2.54,15.7226 2.54,15.5702 q 0,-0.9652 0.9906,-2.1082 1.2699999,-1.4732 4.0385999,-2.1336 0.4064,-0.762 1.1176,-2.4892002 1.27,-2.9972 2.3368001,-4.699 -0.6858,-2.1335999 -2.2860001,-3.14959991 -0.1778,-0.0254 -0.5334,-0.0254 -1.7526,0 -3.5814,1.37160001 Q 2.159,4.1655998 1.5494,6.9087998 q 0.762,1.4986 2.2606,1.4986 0.0508,0 0.0762,0 1.0159999,0 1.9303999,-0.635 0.9144,-0.635 1.016,-1.4986 0,-0.0508 0.0508,-0.0762 0.0508,-0.0254 0.1016,0.0254 0.0508,0.0254 0.0508,0.0762 -0.1016,0.9398 -1.0922,1.6256 -0.9906,0.6858 -2.0573999,0.6858 -0.0254,0 -0.0762,0 -1.4224,0 -2.3114,-1.1684 -0.0254,0.2286 -0.0254,0.4572 0,1.0414 0.5334,1.8542 Q 2.54,10.5664 3.81,10.5664 q 1.2953999,0 2.1589999,-0.6096002 0.889,-0.635 1.1684,-1.016 0.2794,-0.4064 0.3048,-0.2794 0.0254,0.1016 -0.0508,0.254 -0.2794,0.6858 -1.4732,1.4732002 -1.1938,0.762 -2.3113999,0.762 -1.0922,0 -1.778,-0.4318 Q 0.635,9.9059998 0.635,8.0517998 q 0,-0.889 0.2794,-1.778 -0.1778,-0.6096 -0.1778,-1.3208 0,-0.7366 0.3302,-1.6509999 z M 3.0734,16.1544 q 0.4064,1.0668 1.9049999,1.0668 0.8128,0 1.778,-0.4318 1.6002,-0.7366 2.6924,-2.2098 Q 10.541,13.1318 11.049,11.303 10.7442,11.2776 10.16,11.2776 q -0.5588001,0 -1.4478001,0.1524 -2.2352,4.2418 -5.6387999,4.7244 z M 21.7678,3.4543999 q 0.127,0 0.127,0.1524 0,0.1523999 -0.1524,0.1523999 -0.0254,0 -0.0508,0 -0.7366,0 -1.4224,1.27 -1.1176,2.0828 -1.7272,6.3500002 -0.1778,1.3208 -0.1778,1.7272 0,2.2352 1.143,2.2352 0.3302,0 0.8382,-0.3302 0.508,-0.3302 1.0668,-1.2192 0.127,-0.2032 0.2286,-0.127 0.1016,0.0508 0,0.254 -0.5842,1.143 -1.6256,1.6256 -0.4826,0.254 -0.9652,0.254 -0.4572,0 -0.9144,-0.3048 -0.8382,-0.5334 -0.8636,-2.1082 0,-2.2352 1.0668,-5.7912002 0.508,-1.7526 1.397,-2.9464 0.889,-1.1937999 1.905,-1.1937999 0.0508,0 0.127,0 z m -13.7160001,-2.8194 q -1.0414,-0.4318 -2.2098,-0.4318 -1.1684,0 -2.4637999,0.78739999 Q 2.1082,1.7525999 1.6256,2.8955999 1.143,4.0131998 1.143,5.0291998 q 0,0.2794 0.0254,0.5588 l 0.2286,-0.4572 q 1.016,-1.7525999 2.8447999,-2.9971999 1.8288,-1.24460001 3.81,-1.4986 z M 11.1252,11.0744 q 0.381,-1.5240002 0.381,-3.1496002 0,-1.6256 -0.254,-2.8448 -0.381,0.8636 -1.0668,2.7432 -0.6858001,1.8542 -0.9906001,2.5400002 l -0.3302,0.762 q 0.6096,-0.0762 1.1938001,-0.0762 0.5842,0 1.0668,0.0254 z m -8.1788,4.5212 q 0,0.127 0.0254,0.2286 2.4637999,-0.4826 4.4195999,-4.1402 -2.3876,0.5842 -3.4289999,1.8034 -1.016,1.1938 -1.016,2.1082 z M 11.557,4.4449998 q 0.381,1.2954 0.381,2.921 0,1.6256 -0.508,3.7338002 l 0.762,0.0762 q 0.6096,-2.5400002 0.6096,-4.5212002 0,-1.9812 -0.635,-3.3527999 -0.3048,0.5079999 -0.6096,1.1429999 z m -0.254,-0.7366 q 0.1778,-0.2793999 0.635,-0.8381999 -0.889,-1.4986 -2.7178001,-1.8288 Q 10.6426,2.0065999 11.303,3.7083998 Z M 13.4366,11.684 12.7,11.4808 q -0.5588,1.6764 -1.27,3.0734 0.5334,-0.254 2.0066,-2.8702 z"
         style="font-family:'Lovers Quarrel';-inkscape-font-specification:'Lovers Quarrel'"
         id="path424" />
    </g>
    <g
       aria-label="eg Austin"
       id="text290"
       style="font-size:7.05556px;line-height:1.25;stroke-width:0.264583">
      <path
         d="m 23.357322,13.785687 q 0.134056,0.105833 0.134056,0.268111 0,0.162278 -0.155223,0.373945 h 0.141112 q 0.105833,0 -0.0071,0.04233 -0.112889,0.03528 -0.211667,0.05645 -0.07055,0.08467 -0.162278,0.155222 -0.09172,0.0635 -0.08467,0.0071 l 0.03528,-0.0635 0.07056,-0.07761 q -0.5715,0.04233 -0.606778,0.04939 -0.07761,0.190501 -0.07761,0.409223 0,0.218722 0.105833,0.310445 0.105833,0.08467 0.183445,0.08467 0.486833,0 0.987778,-0.529167 0.0635,-0.0635 0.0635,0.0071 0,0.02117 -0.04233,0.07056 -0.141112,0.169334 -0.395112,0.324556 -0.409222,0.261056 -0.663222,0.261056 -0.246945,0 -0.395112,-0.134056 -0.148166,-0.141111 -0.148166,-0.423333 0,-0.09878 0.02822,-0.261056 0.03528,-0.162278 0.162278,-0.416278 0.134055,-0.261056 0.3175,-0.437445 0.1905,-0.183444 0.366889,-0.183444 0.183445,0 0.352778,0.105833 z m -0.169333,0.649112 q 0.119944,-0.246945 0.119944,-0.395112 0,-0.148167 -0.127,-0.148167 -0.127,0 -0.310445,0.176389 -0.183444,0.176389 -0.289278,0.381001 0.522112,-0.01411 0.606779,-0.01411 z"
         style="font-family:'Lovers Quarrel';-inkscape-font-specification:'Lovers Quarrel'"
         id="path427" />
      <path
         d="m 24.711992,13.983243 q -0.204611,0.176389 -0.409222,0.458611 -0.197556,0.275167 -0.282223,0.486834 -0.08467,0.204611 -0.08467,0.303389 0,0.09172 0.0635,0.09172 0.1905,0 0.769056,-0.846667 0.225778,-0.289278 0.225778,0.0071 -0.0071,0.04939 -0.0071,0.127 0,0.268111 0.01411,0.479778 0.1905,-0.127 0.359834,-0.282223 0.176389,-0.155222 0.176389,-0.105833 0,0.04939 -0.09172,0.148167 -0.303389,0.303389 -0.437444,0.388055 0.02822,0.218723 0.02822,0.543279 0,0.331611 -0.105833,0.747889 -0.155223,0.635 -0.578556,1.093612 -0.324556,0.345722 -0.740834,0.515056 -0.275167,0.127 -0.592667,0.127 -0.536223,0 -0.846667,-0.310445 -0.211667,-0.232833 -0.211667,-0.493889 0,-0.543278 0.959556,-1.171223 0.423334,-0.268111 1.023056,-0.592667 0.599723,-0.324556 0.87489,-0.493889 -0.09172,-0.451556 -0.119945,-0.479778 -0.282222,0.4445 -0.409222,0.564444 -0.211667,0.197556 -0.345723,0.183445 -0.232833,-0.03528 -0.232833,-0.310445 0,-0.282222 0.176389,-0.620889 0.183444,-0.345722 0.479778,-0.620889 0.296333,-0.275167 0.592667,-0.275167 0.141111,0 0.275167,0.07055 0.119944,0.07056 0.119944,0.225778 0,0.148167 -0.134055,0.169334 0.04939,-0.08467 0.04939,-0.155222 0,-0.07761 -0.07055,-0.112889 -0.0635,-0.03528 -0.127,-0.03528 -0.148167,0 -0.359834,0.176389 z M 22.369546,17.0383 q -0.282222,0.296334 -0.282222,0.493889 0,0.197556 0.141111,0.338667 0.197556,0.197556 0.635,0.197556 0.331612,0 0.705556,-0.155222 0.458612,-0.176389 0.797279,-0.536223 0.522111,-0.5715 0.522111,-1.453445 0,-0.282223 -0.04939,-0.592667 -2.003779,1.206501 -2.469446,1.707445 z"
         style="font-family:'Lovers Quarrel';-inkscape-font-specification:'Lovers Quarrel'"
         id="path429" />
      <path
         d="m 31.421826,11.450297 q 0.261055,0 0.261055,0.331611 0,0.176389 -0.09172,0.952501 -0.08467,0.769056 -0.105833,1.213556 0.352778,-0.02117 0.437444,-0.07761 0.08467,-0.05645 0.08467,-0.01411 0.0071,0.04233 -0.119944,0.119944 -0.119945,0.07056 -0.402167,0.112889 0,0.127 0,0.437445 0,0.684389 0.232833,0.910167 0.08467,0.08467 0.141111,0.08467 0.0635,0 0.141112,-0.02822 0.08467,-0.02117 0.211666,-0.155223 0.127001,-0.141111 0.218723,-0.352778 0.02822,-0.0635 0.04939,-0.04939 0.02822,0.0071 0.02822,0.02822 0,0.02117 -0.0071,0.04939 -0.09172,0.261055 -0.289278,0.437444 -0.430389,0.395112 -0.769056,0.09172 -0.176389,-0.155223 -0.225778,-0.451556 -0.04233,-0.296334 -0.04233,-0.536223 0,-0.246944 0.0071,-0.430389 -0.105834,0.0071 -0.881945,0.0071 -0.373945,0.409222 -0.804334,0.769056 0.04939,0.0071 0.105833,0.0071 0.508001,0 0.903112,-0.522111 0.02822,-0.03528 0.04233,0.0071 v 0.02822 q -0.423333,0.55739 -0.945445,0.55739 -0.09172,0 -0.176389,-0.01411 -1.100667,0.881945 -1.876779,0.881945 -0.416278,0 -0.642056,-0.232834 -0.141111,-0.155222 -0.141111,-0.381 0,-0.331611 0.232834,-0.564445 0.239889,-0.232833 0.564444,-0.338667 0.331612,-0.112889 0.860779,-0.197555 -0.176389,-0.402167 -0.176389,-0.797279 0,-1.072445 0.606778,-1.57339 0.324556,-0.261055 0.663222,-0.261055 0.119945,0 0.246945,0.03528 0.4445,0.112889 0.585612,0.578556 0.05644,0.176389 0.05644,0.381001 0,0.677333 -0.564445,1.516945 h 0.3175 q 0.141112,-0.141111 0.55739,-0.719667 0.416278,-0.585612 0.627945,-0.853723 0.07056,-0.458611 0.07056,-0.592667 0,-0.246945 -0.127,-0.246945 -0.148167,0 -0.395111,0.289278 -0.134056,0.155223 -0.162278,0.218723 -0.02822,0.0635 -0.07056,0.03528 -0.04233,-0.05645 0.127,-0.268112 0.352778,-0.423333 0.635001,-0.423333 z m -1.672168,2.568224 q 0.169333,-0.246945 0.289278,-0.49389 0.268111,-0.550333 0.268111,-0.917222 0,-0.36689 -0.134055,-0.606779 -0.225778,-0.409222 -0.691445,-0.409222 -0.458612,0 -0.797279,0.465667 -0.331611,0.465667 -0.331611,1.277056 0,0.423334 0.169333,0.783167 0.642056,-0.09172 1.227668,-0.09878 z m -2.89278,1.128889 q 0,0.197556 0.197556,0.338667 0.246945,0.183445 0.656167,0.183445 0.740834,0 1.559279,-0.740834 l -0.162278,-0.0635 q -0.726723,0.635 -1.411112,0.635 -0.204611,0 -0.402167,-0.05644 -0.03528,-0.0071 -0.02117,-0.03528 0.01411,-0.02822 0.03528,-0.02117 0.825501,0.218723 1.728612,-0.564445 -0.324555,-0.1905 -0.529167,-0.543278 -0.677333,0.134056 -1.016,0.239889 -0.635001,0.218723 -0.635001,0.627945 z m 3.570114,-1.171223 q 0.09878,0.0071 0.275167,0.0071 0.183444,0 0.493889,-0.01411 0.02117,-0.550334 0.134055,-1.291168 -0.176389,0.310445 -0.338666,0.529167 -0.155223,0.211667 -0.324556,0.4445 -0.162278,0.225778 -0.239889,0.324556 z m -0.754945,0.148167 q -0.522112,0.04939 -1.072445,0.141111 0.211666,0.345723 0.500944,0.500945 0.30339,-0.275167 0.571501,-0.642056 z m 0.402167,-0.0071 q -0.0635,-0.0071 -0.141111,-0.0071 -0.07761,0 -0.162278,0.0071 -0.275167,0.402167 -0.599723,0.691445 0.09172,0.03528 0.162278,0.05645 0.148167,-0.141111 0.395111,-0.395112 0.246945,-0.261055 0.345723,-0.352778 z"
         style="font-family:'Lovers Quarrel';-inkscape-font-specification:'Lovers Quarrel'"
         id="path431" />
      <path
         d="m 33.954766,15.323799 q 0.211667,0 0.550333,-0.381 l 0.04233,0.02822 q -0.01411,0.04233 -0.141111,0.176389 -0.127,0.127 -0.310445,0.225778 -0.176389,0.09172 -0.275167,0.09172 -0.09172,0 -0.148167,-0.02117 -0.127,-0.04233 -0.204611,-0.246945 -0.07055,-0.204611 -0.08467,-0.381 -0.01411,-0.183445 -0.0071,-0.1905 -0.05645,0.08467 -0.105834,0.169333 -0.04233,0.07761 -0.105833,0.169334 -0.0635,0.09172 -0.141111,0.183444 -0.246945,0.324556 -0.423334,0.324556 -0.01411,0 -0.02117,0 -0.268112,-0.04233 -0.268112,-0.381 0,-0.515056 0.515056,-1.284112 0.04233,-0.0635 0.127,-0.0635 0.08467,0 0.162278,0.01411 0.105834,0.04233 0.09878,0.07761 -0.169333,0.169333 -0.359834,0.508 -0.324555,0.592667 -0.324555,0.839612 0,0.134056 0.08467,0.134056 0.09172,0 0.204612,-0.09878 0.119944,-0.105834 0.197555,-0.211667 0.07761,-0.105833 0.141112,-0.1905 0.0635,-0.09172 0.155222,-0.232834 0.09172,-0.148166 0.141111,-0.218722 0.04939,-0.07056 0.09878,-0.105833 0.05644,-0.04233 0.08467,-0.0071 0.03528,0.02822 0.02822,0.119945 0,0.08467 0,0.148166 0,0.804334 0.289278,0.804334 z"
         style="font-family:'Lovers Quarrel';-inkscape-font-specification:'Lovers Quarrel'"
         id="path433" />
      <path
         d="m 34.236988,15.641299 q -0.254,0 -0.254,-0.127 0,-0.04233 0.0635,-0.08467 0.05645,-0.04939 0.169334,-0.05645 0.684389,-0.05644 0.733778,-0.07056 0.04939,-0.07761 0.04939,-0.176389 0,-0.105834 -0.1905,-0.268112 -0.1905,-0.162278 -0.275167,-0.338667 -0.08467,-0.176389 -0.08467,-0.282222 0,-0.105833 0.05644,-0.197556 0.246944,-0.409222 0.578556,-0.409222 0.282222,0 0.366889,0.1905 0.02117,0.05644 0,0.09878 -0.01411,0.04233 -0.03528,0.03528 -0.02117,-0.0071 -0.02822,-0.04233 -0.01411,-0.127 -0.119945,-0.127 -0.05644,0 -0.134055,0.03528 -0.289278,0.112889 -0.402167,0.395111 -0.02822,0.07056 -0.02822,0.148167 0,0.07761 0.04939,0.1905 0.04939,0.112889 0.162278,0.211667 0.197556,0.169333 0.197556,0.352778 0,0.07056 -0.03528,0.141111 0.359834,-0.169333 0.557389,-0.310445 l 0.01411,0.0071 q -0.0071,0.09172 -0.352778,0.275167 -0.112889,0.0635 -0.197555,0.112889 l -0.07761,0.04939 q -0.07056,0.134055 -0.458612,0.204611 -0.197556,0.04233 -0.324556,0.04233 z"
         style="font-family:'Lovers Quarrel';-inkscape-font-specification:'Lovers Quarrel'"
         id="path435" />
      <path
         d="m 36.558268,13.736298 q 0.515056,0 0.515056,0.0635 0,0.01411 -0.169333,0.03528 -0.543279,0.05644 -0.592668,0.07056 -0.345722,0.846667 -0.345722,1.2065 0,0.112889 0.04233,0.169334 0.04939,0.04939 0.105834,0.04233 0.0635,-0.0071 0.09878,-0.01411 0.04233,-0.0071 0.119944,-0.04233 0.08467,-0.04233 0.134056,-0.0635 0.119944,-0.05645 0.458611,-0.317501 0.119945,-0.08467 0.127,-0.03528 0,0.09172 -0.381,0.359833 -0.373945,0.268112 -0.613834,0.268112 -0.0071,0 -0.01411,0 -0.218722,-0.01411 -0.282222,-0.119945 -0.02822,-0.05644 -0.02822,-0.169333 0,-0.112889 0.02117,-0.268112 0.02822,-0.162278 0.112889,-0.409222 0.08467,-0.246945 0.148167,-0.423334 0.07056,-0.176389 0.0635,-0.176389 -0.07761,0 -0.522111,0.0635 -0.03528,0.0071 -0.03528,-0.07055 0,-0.08467 0.07055,-0.112889 0.07761,-0.02822 0.536223,-0.04939 0.218722,-0.74789 0.324556,-0.966612 0.02117,-0.04939 0.0635,-0.04939 0.04233,0 0.119944,0.09878 0.07761,0.09878 0.07761,0.148167 0,0.04939 -0.01411,0.07761 l -0.345722,0.691445 q 0.09878,-0.0071 0.204611,-0.0071 z"
         style="font-family:'Lovers Quarrel';-inkscape-font-specification:'Lovers Quarrel'"
         id="path437" />
      <path
         d="m 37.680101,13.277687 q 0.04939,0 0.04939,0.03528 0,0.02822 -0.08467,0.127 -0.183445,0.225778 -0.359834,0.08467 -0.02822,-0.02117 -0.0071,-0.04233 0.246944,-0.204611 0.402167,-0.204611 z m -0.543279,1.792112 q 0,0.211667 0.127001,0.211667 0.07055,0 0.345722,-0.225778 0.282222,-0.232834 0.303389,-0.254 0.02117,-0.02117 0.03528,-0.0071 0.01411,0.0071 0.01411,0.02117 0,0.0071 -0.0071,0.02117 -0.105833,0.176389 -0.4445,0.423333 -0.225778,0.183445 -0.381,0.183445 -0.239889,0 -0.239889,-0.409223 0,-0.07761 0.01411,-0.218722 0.01411,-0.148167 0.225778,-0.896056 0.01411,-0.05645 0.155222,-0.05645 0.148167,0 0.148167,0.08467 0,0.07761 -0.05644,0.211667 -0.04939,0.127 -0.119945,0.141111 -0.03528,0.0071 -0.07761,0.352778 -0.04233,0.345722 -0.04233,0.416278 z"
         style="font-family:'Lovers Quarrel';-inkscape-font-specification:'Lovers Quarrel'"
         id="path439" />
      <path
         d="m 39.627437,15.295577 q 0,0.162278 -0.275167,0.289278 -0.09878,0.04233 -0.197556,0.04233 -0.225778,-0.02117 -0.296333,-0.162278 -0.0635,-0.134055 -0.0635,-0.232833 0,-0.09878 0.01411,-0.225778 0.01411,-0.134056 0.04939,-0.3175 0.04233,-0.1905 0.09878,-0.373945 0.0635,-0.1905 0.0635,-0.197556 -0.0635,0.08467 -0.282223,0.338667 -0.564445,0.627945 -0.620889,0.776112 -0.04939,0.148167 -0.204611,0.197556 -0.08467,0.02822 -0.08467,-0.03528 0,-0.01411 0.04939,-0.204611 0.155222,-0.592668 0.155222,-0.945446 l -0.0071,-0.1905 q 0,-0.119944 0.162278,-0.197555 0.07055,-0.03528 0.127,-0.03528 0.09878,0 0.07761,0.09878 -0.02117,0.09172 -0.07056,0.352778 -0.112889,0.613833 -0.141111,0.670278 0.416278,-0.381 0.896056,-1.12889 0.02822,-0.04939 0.08467,-0.04939 0.204611,0 0.225778,0.07056 0.01411,0.04939 -0.07761,0.3175 -0.08467,0.261056 -0.127001,0.430389 -0.105833,0.43039 -0.105833,0.62089 0,0.183444 0.02822,0.261055 0.02822,0.07761 0.09878,0.07056 0.204611,-0.02822 0.395112,-0.261056 0.02822,-0.02822 0.02822,0.02117 z"
         style="font-family:'Lovers Quarrel';-inkscape-font-specification:'Lovers Quarrel'"
         id="path441" />
    </g>
  </g>
</svg>
